P3
16 16
255
191 191 191 191 191 191 191 191 191 191 191 191 191 191 191 143 143 143 191 191 191 143 143 143 191 191 191 191 191 191 143 143 143 191 191 191 191 191 191 191 191 191 191 191 191 143 143 143 
191 191 191 191 191 191 191 191 191 191 191 191 191 191 191 191 191 191 191 191 191 143 143 143 191 191 191 191 191 191 191 191 191 191 191 191 191 191 191 191 191 191 191 191 191 191 191 191 
191 95 95 191 127 127 191 191 191 191 191 191 191 191 191 95 95 95 95 95 95 47 47 47 95 95 95 0 0 0 95 95 95 191 191 191 191 191 191 191 191 191 191 191 191 95 95 191 
191 63 63 191 63 63 191 95 95 191 191 191 191 191 191 191 191 191 191 191 191 191 191 191 191 191 191 191 191 191 191 191 191 191 191 191 191 191 191 159 159 191 63 63 191 63 63 191 
191 63 63 191 63 63 191 95 95 191 191 191 191 191 191 191 191 191 191 191 191 191 191 191 191 191 191 191 191 191 191 191 191 191 191 191 191 191 191 63 63 191 63 63 191 63 63 191 
191 63 63 191 63 63 191 63 63 191 191 191 191 191 191 191 191 191 191 191 191 191 191 191 191 191 191 191 191 191 191 191 191 191 191 191 191 191 191 95 95 191 63 63 191 63 63 191 
191 63 63 191 63 63 191 95 95 191 191 191 191 191 191 191 191 191 191 191 191 191 191 191 191 191 191 191 191 191 191 191 191 191 191 191 191 191 191 63 63 191 63 63 191 63 63 191 
191 63 63 191 63 63 191 95 95 191 191 191 191 191 191 191 191 191 191 191 191 191 191 191 191 191 191 191 191 191 191 191 191 191 191 191 191 191 191 95 95 191 63 63 191 63 63 191 
191 63 63 191 63 63 191 95 95 191 191 191 207 207 207 207 207 207 191 191 191 191 191 191 191 191 191 191 191 191 191 191 191 191 191 191 191 191 191 63 63 191 63 63 191 63 63 191 
191 63 63 191 63 63 191 95 95 207 207 207 222 222 222 254 254 254 222 222 222 191 191 191 191 191 191 191 191 191 191 191 191 191 191 191 191 191 191 127 127 191 63 63 191 63 63 191 
191 63 63 191 63 63 191 95 95 254 254 254 254 254 254 254 254 254 254 254 254 222 222 222 191 191 191 191 191 191 191 191 191 191 191 191 191 191 191 95 95 191 63 63 191 63 63 191 
191 63 63 191 63 63 191 63 63 238 238 238 254 254 254 254 254 254 254 254 254 191 191 191 191 191 191 191 191 191 191 191 191 191 191 191 191 191 191 95 95 191 63 63 191 63 63 191 
191 63 63 191 63 63 191 127 127 207 207 207 254 254 254 254 254 254 222 222 222 191 191 191 191 191 191 191 191 191 191 191 191 191 191 191 191 191 191 95 95 191 63 63 191 63 63 191 
191 63 63 191 63 63 191 191 191 191 191 191 191 191 191 207 207 207 191 191 191 191 191 191 191 191 191 191 191 191 191 191 191 191 191 191 191 191 191 191 191 191 95 95 191 63 63 191 
191 127 127 191 191 191 191 191 191 191 191 191 191 191 191 191 191 191 191 191 191 191 191 191 191 191 191 191 191 191 191 191 191 191 191 191 191 191 191 191 191 191 191 191 191 95 95 191 
191 191 191 191 191 191 191 191 191 191 191 191 191 191 191 191 191 191 191 191 191 191 191 191 191 191 191 191 191 191 191 191 191 191 191 191 191 191 191 191 191 191 191 191 191 191 191 191 
