P3
64 64
255
255 255 255 255 255 255 255 255 255 255 255 255 255 255 255 255 255 255 255 255 255 255 255 255 255 255 255 255 255 255 255 255 255 255 255 255 255 255 255 255 255 255 255 255 255 255 255 255 255 255 255 255 255 255 255 255 255 255 255 255 255 255 255 255 255 255 255 255 255 255 255 255 255 255 255 255 255 255 255 255 255 255 255 255 255 255 255 255 255 255 255 255 255 255 255 255 255 255 255 255 255 255 255 255 255 255 255 255 255 255 255 255 255 255 255 255 255 255 255 255 255 255 255 255 255 255 255 255 255 255 255 255 255 255 255 255 255 255 255 255 255 255 255 255 255 255 255 255 255 255 255 255 255 255 255 255 255 255 255 255 255 255 255 255 255 255 255 255 255 255 255 255 255 255 255 255 255 255 255 255 255 255 255 255 255 255 255 255 255 255 255 255 
5 91 124 8 112 183 8 92 193 9 70 211 13 91 255 5 22 131 6 49 138 4 41 95 7 71 166 2 17 62 4 38 77 1 17 46 17 152 255 2 41 149 3 30 166 2 44 75 1 36 108 0 44 154 0 59 105 1 45 82 0 60 112 1 67 112 1 71 154 4 87 88 0 22 78 0 16 148 1 22 97 0 21 114 0 5 49 0 10 98 0 25 98 0 11 108 1 26 137 0 17 88 0 9 88 0 21 59 0 19 108 1 22 97 1 22 97 0 18 163 4 49 92 2 82 86 1 57 102 1 12 69 1 67 115 0 47 97 4 54 75 1 39 125 0 14 89 3 20 134 1 12 89 12 77 184 5 47 115 0 2 0 18 64 155 7 63 154 5 38 77 12 39 77 25 49 116 41 54 116 21 64 120 33 31 42 22 67 120 18 94 163 
4 105 116 3 89 110 4 54 120 4 64 119 4 31 149 2 27 78 2 38 56 0 6 47 0 3 29 2 8 99 0 11 37 2 34 76 17 171 255 15 150 255 2 32 169 3 50 158 4 75 190 2 83 183 2 66 153 3 45 205 6 118 221 4 90 169 6 90 179 4 95 219 4 77 205 7 73 238 3 46 215 4 58 185 11 111 255 7 71 219 5 65 204 5 62 184 7 69 203 3 45 205 2 37 140 5 56 194 7 70 213 4 52 195 12 107 255 2 53 179 7 137 228 5 117 198 4 70 208 2 68 131 6 71 237 7 64 163 6 51 196 9 87 255 4 32 147 7 36 137 16 128 255 13 128 255 3 38 128 0 2 12 3 10 70 0 6 50 4 11 39 6 10 9 20 9 21 18 15 22 20 14 41 16 23 33 10 24 55 6 35 23 
13 140 255 1 49 157 5 79 254 1 56 178 1 29 167 2 43 167 1 29 78 3 44 195 0 16 146 1 28 157 0 25 167 0 26 163 17 164 255 21 194 255 20 183 255 13 118 255 9 98 188 16 204 255 17 156 255 13 139 255 20 190 255 10 118 202 13 176 255 25 255 255 8 156 181 11 106 234 10 103 192 11 103 231 19 159 255 23 207 255 19 159 255 15 127 255 13 111 255 18 159 255 15 127 255 11 95 231 17 143 255 11 106 234 18 148 255 8 121 136 21 227 255 19 202 255 14 148 255 17 188 255 17 167 255 19 178 255 20 173 255 16 71 154 16 120 255 28 225 255 11 121 255 31 255 255 10 94 255 2 28 128 2 8 78 0 15 139 3 28 107 3 37 166 10 33 157 13 33 129 9 23 111 6 24 121 2 27 115 12 104 215 
8 90 255 9 109 255 10 109 255 7 75 150 3 23 64 6 85 66 1 23 17 1 16 48 11 83 236 1 2 36 4 51 50 5 62 128 29 250 255 44 255 255 34 255 255 7 88 85 2 20 67 4 71 101 8 86 202 0 10 3 1 23 6 0 59 29 0 100 36 0 43 13 0 53 16 1 78 20 0 21 6 2 31 38 0 15 0 0 0 0 1 15 38 0 7 0 1 24 0 1 15 38 0 15 0 1 15 38 1 15 38 0 32 10 1 88 27 4 91 55 1 77 23 2 73 61 0 64 20 0 25 12 4 55 13 4 29 41 7 27 3 11 38 79 8 65 154 45 255 255 45 255 255 43 255 255 12 70 115 8 69 164 17 15 38 11 31 77 4 32 77 7 30 40 9 6 1 21 21 40 13 45 108 5 43 209 22 180 255 11 116 255 
8 91 255 10 107 255 20 169 255 17 161 255 13 133 255 7 87 76 1 26 4 2 28 51 1 4 30 8 56 198 6 77 92 11 112 218 22 201 255 24 217 255 25 215 255 10 99 248 1 25 85 1 24 62 1 37 49 0 13 35 0 15 42 1 33 23 0 71 20 3 130 105 2 94 81 1 104 66 1 87 81 0 46 114 0 23 52 0 7 45 0 5 49 0 6 59 0 5 49 0 8 78 0 2 19 0 26 56 0 48 89 1 100 78 2 112 85 0 55 78 0 29 56 1 65 72 2 43 49 1 25 16 0 27 36 2 16 52 3 10 50 6 11 50 7 56 129 25 163 255 23 195 255 26 187 255 22 124 255 5 30 38 19 50 115 23 34 77 4 32 77 3 23 38 11 45 77 17 76 156 17 154 255 24 121 255 11 109 255 11 97 255 
17 162 255 12 112 255 27 235 255 30 255 255 35 255 255 13 123 255 2 34 0 0 8 19 0 1 24 2 16 36 3 35 62 3 50 43 8 104 189 8 82 232 7 81 226 10 112 255 4 60 165 5 66 160 5 70 233 0 26 151 2 46 186 4 84 241 2 52 209 2 68 167 1 54 210 2 59 171 2 48 180 4 89 219 6 115 255 4 100 232 4 81 202 3 50 244 5 90 255 6 91 255 2 49 249 2 57 137 4 73 202 4 71 251 5 83 250 8 110 255 1 42 154 0 45 128 4 48 201 4 81 225 0 23 102 2 20 167 3 19 108 14 125 255 12 86 200 5 42 91 11 100 239 7 41 62 15 46 77 11 14 0 7 9 0 2 0 0 1 5 0 3 11 0 20 119 255 38 255 255 25 194 255 23 177 255 22 171 255 14 50 104 
2 29 66 10 84 220 9 82 204 7 38 139 4 33 101 2 17 62 1 22 41 1 23 6 2 12 54 4 47 64 3 25 57 2 30 65 8 97 255 14 151 255 9 97 255 11 114 255 7 83 255 2 44 176 5 64 115 1 24 29 0 31 36 0 16 52 2 43 71 5 67 119 3 68 114 255 255 255 255 255 255 255 255 255 255 255 255 255 255 255 255 255 255 255 255 255 255 255 255 255 255 255 255 255 255 255 255 255 98 155 190 194 255 255 255 255 255 9 129 197 2 51 99 4 50 129 3 45 110 3 50 149 3 39 91 3 12 29 4 46 185 4 53 247 8 84 255 7 86 255 13 113 255 7 59 204 12 11 39 21 12 0 15 20 9 14 6 19 4 14 0 3 18 41 7 16 39 17 82 194 13 64 155 11 49 116 7 50 117 5 18 14 
0 2 8 0 7 13 1 12 42 1 3 3 0 1 12 0 0 12 0 0 12 0 0 0 6 69 66 3 49 83 3 34 77 4 32 162 8 90 255 7 89 255 7 87 255 11 116 255 10 107 255 6 82 255 7 76 183 1 23 19 0 8 9 255 255 255 255 255 255 255 255 255 255 255 255 255 255 255 255 255 255 255 255 255 255 255 255 255 255 255 255 255 255 255 255 255 255 255 255 255 255 255 255 255 255 255 255 255 255 255 255 255 255 255 255 255 255 255 255 255 255 255 255 255 255 255 255 255 255 0 11 13 1 4 0 8 36 88 16 150 255 11 118 255 9 101 255 7 76 255 7 76 255 13 116 255 16 10 69 18 9 0 16 21 0 11 23 10 0 0 0 0 0 0 2 0 0 0 2 2 5 0 0 65 16 10 4 8 3 0 6 5 
6 23 93 3 7 49 2 7 40 0 2 9 0 0 0 0 0 0 0 0 0 0 5 15 3 18 16 3 40 34 3 27 64 5 55 180 8 90 255 13 134 255 8 96 255 10 114 255 11 120 255 6 78 255 8 92 255 2 30 107 0 16 19 255 255 255 255 255 255 255 255 255 255 255 255 255 255 255 255 255 255 255 255 255 255 255 255 255 255 255 255 255 255 255 255 255 255 255 255 255 255 255 255 255 255 255 255 255 255 255 255 255 255 255 255 255 255 255 255 255 255 255 255 255 255 255 255 255 255 2 11 19 3 26 68 15 151 255 15 150 255 19 180 255 9 101 255 11 116 255 13 113 255 8 67 255 12 10 89 8 9 0 17 14 0 5 10 13 0 1 1 0 2 1 0 0 0 0 0 0 2 0 0 18 2 1 51 4 5 41 13 15 
4 25 112 7 21 102 7 18 70 8 12 106 0 2 9 0 5 25 0 5 25 1 3 3 2 15 65 1 4 15 5 41 99 4 42 96 3 34 167 6 65 255 4 62 238 9 96 255 6 84 255 8 95 255 11 123 255 2 35 157 3 36 38 4 53 68 0 12 23 255 255 255 255 255 255 255 255 255 255 255 255 255 255 255 255 255 255 255 255 255 255 255 255 255 255 255 255 255 255 255 255 255 255 255 255 255 255 255 255 255 255 255 255 255 255 255 255 255 255 255 192 228 201 0 25 16 1 7 0 3 11 0 9 69 204 11 106 255 6 69 255 8 87 255 4 42 187 5 20 158 1 20 178 4 22 149 15 19 68 6 12 2 0 2 2 4 4 4 2 7 5 1 3 3 0 0 0 14 2 3 27 2 3 50 0 0 39 5 7 15 11 13 
5 16 98 12 31 183 13 55 255 10 66 255 6 72 255 2 36 113 3 29 83 2 16 71 6 20 160 2 29 95 5 56 163 3 42 122 2 35 130 4 48 118 2 37 88 4 39 179 6 52 188 2 45 85 6 75 184 6 55 125 6 70 170 2 39 127 1 24 117 1 28 69 2 34 147 4 62 198 1 29 166 2 36 166 1 24 117 2 39 160 0 18 167 3 55 176 2 51 199 5 71 255 3 40 156 3 51 159 2 33 101 2 38 130 2 32 166 2 28 147 2 22 118 3 21 108 0 16 148 1 17 48 4 46 91 3 23 58 3 21 56 5 40 85 15 31 68 6 7 8 2 3 1 9 46 72 11 13 17 6 12 32 3 8 19 29 11 28 10 8 11 2 7 9 8 21 29 34 22 30 47 18 25 53 27 40 119 10 16 26 7 8 
5 62 234 12 42 213 8 23 160 6 25 174 6 40 254 2 31 151 1 13 90 4 13 114 11 18 208 0 8 55 1 22 97 2 63 168 5 106 255 4 113 205 2 73 162 5 91 255 6 123 255 5 130 255 6 152 255 6 146 253 3 99 214 1 30 83 0 17 31 1 33 28 1 29 49 1 38 47 2 63 63 1 23 37 2 47 84 1 33 67 2 46 74 0 33 25 3 88 126 1 31 47 1 49 56 1 35 57 1 33 40 2 42 46 2 37 56 1 5 0 1 16 18 3 41 66 5 60 114 3 82 194 5 127 255 3 90 183 8 111 237 10 101 229 9 132 255 5 69 144 6 31 73 3 82 239 9 36 94 15 13 33 0 7 60 112 7 51 41 5 9 1 7 15 14 15 29 65 13 27 1 9 19 140 6 11 77 11 16 43 20 26 
9 57 228 13 40 255 9 18 150 14 23 173 9 17 118 4 49 188 4 50 170 2 54 190 4 23 133 2 19 58 6 35 116 2 48 105 2 74 186 4 112 224 4 107 235 5 86 182 3 67 162 4 92 191 2 70 148 3 73 132 3 91 194 7 155 254 1 32 39 1 25 64 1 30 68 3 64 121 4 84 106 3 76 94 2 44 38 2 64 104 0 18 77 0 18 77 2 70 129 1 53 80 5 146 169 1 31 116 4 49 105 0 13 51 1 29 96 1 6 19 1 11 59 1 27 57 2 56 139 7 120 238 4 60 107 3 33 78 6 79 195 10 78 163 13 53 97 6 60 119 5 108 168 6 115 108 4 29 73 31 20 10 27 8 11 27 12 20 3 19 28 4 18 23 4 20 24 78 12 16 128 10 13 126 2 4 53 13 18 54 20 27 
11 28 141 11 17 146 11 22 136 6 31 111 13 26 145 7 25 107 1 39 127 1 26 83 3 26 118 3 58 117 8 121 171 4 178 133 2 127 97 1 38 105 2 52 113 2 44 126 1 37 81 2 47 94 3 61 127 0 13 68 1 40 76 0 26 94 1 34 64 0 6 21 0 11 18 1 21 25 0 22 33 1 32 18 2 47 52 1 35 18 1 30 37 0 22 8 0 19 18 0 24 41 1 57 86 0 3 9 1 38 18 0 13 26 0 13 26 1 22 41 0 0 0 1 31 70 27 99 108 1 39 93 1 20 51 4 63 124 4 45 70 6 51 100 6 50 143 3 38 66 3 12 28 9 67 44 12 81 15 42 23 15 15 22 16 26 10 12 0 4 5 3 19 18 42 8 9 57 20 13 89 6 6 76 4 7 118 13 9 13 5 10 
8 6 65 8 13 71 14 7 126 10 13 98 10 34 141 5 34 70 2 42 99 1 13 24 6 13 62 4 32 128 5 57 181 8 111 201 3 46 125 7 25 125 5 28 87 3 78 168 4 92 162 2 56 110 1 6 35 0 1 7 0 3 15 0 10 15 1 26 52 2 55 112 1 22 7 0 11 18 1 34 26 0 15 33 0 8 7 0 3 15 0 62 31 0 11 18 0 15 33 0 11 18 0 37 26 0 3 15 0 22 17 0 7 20 1 16 18 0 3 15 2 47 75 3 71 119 1 8 15 0 3 15 0 0 0 3 5 22 5 39 80 2 73 154 3 51 97 4 31 49 18 8 19 11 31 11 56 25 14 4 34 23 39 5 5 26 5 5 2 11 9 4 15 13 27 15 15 152 6 5 89 4 4 101 1 0 152 2 1 25 3 2 
30 44 198 57 92 255 60 92 255 48 82 255 37 48 255 21 41 154 4 47 149 3 49 111 5 34 88 7 21 82 7 29 104 9 51 132 5 27 111 6 25 109 2 23 71 1 12 34 1 38 63 2 41 89 0 9 38 0 0 0 0 1 7 0 0 0 0 15 60 0 24 98 0 10 15 0 12 22 255 255 255 255 255 255 255 255 255 255 255 255 255 255 255 255 255 255 255 255 255 255 255 255 255 255 255 255 255 255 255 255 255 154 255 255 0 3 15 0 15 60 1 51 141 1 44 93 0 4 7 0 3 15 0 1 7 2 25 45 3 35 57 2 59 95 3 3 3 5 6 5 39 5 5 26 5 6 54 36 9 41 14 13 142 3 3 39 8 8 7 10 10 34 13 14 127 5 4 173 1 1 187 19 8 160 4 4 242 54 24 194 56 25 
69 99 255 28 26 255 34 58 255 43 55 255 33 25 255 31 24 255 9 30 165 4 31 63 5 56 107 23 36 252 4 44 114 17 17 172 3 22 96 3 17 73 3 20 83 1 12 47 2 11 58 2 9 50 0 7 33 0 3 9 0 8 7 0 15 7 1 24 15 0 30 47 0 7 11 0 38 13 79 255 146 53 227 121 134 255 255 134 255 255 235 255 255 107 255 236 112 255 255 105 255 215 183 255 255 159 255 255 133 255 238 1 151 36 2 43 10 1 53 48 0 17 68 1 12 13 0 0 0 2 15 22 0 4 15 1 0 0 6 1 1 7 3 5 13 5 5 5 6 7 10 5 4 8 5 5 95 6 5 40 9 9 204 4 4 46 9 5 6 6 5 43 4 5 255 1 1 255 2 1 243 1 0 212 1 1 202 10 4 255 28 12 
26 26 241 24 20 234 21 29 253 26 23 255 32 29 255 23 18 231 5 20 116 1 19 53 4 37 65 24 31 236 9 24 133 11 20 149 2 21 70 6 23 95 3 29 102 3 17 92 2 9 51 0 10 47 0 3 17 0 5 16 0 3 7 0 10 5 0 24 25 0 59 32 0 74 70 1 82 19 2 96 11 2 106 14 1 139 18 2 161 34 3 167 32 3 176 20 1 119 21 3 171 33 3 171 25 3 152 27 2 67 11 2 88 22 2 78 29 2 72 24 0 32 10 0 19 2 0 2 0 0 0 0 0 2 2 6 0 1 6 0 1 0 1 2 25 1 3 18 4 4 7 1 1 19 5 7 72 5 6 54 5 3 156 5 2 24 7 3 7 6 3 61 2 1 245 1 2 240 1 0 218 1 1 217 1 0 230 0 0 128 5 2 
5 5 40 11 23 111 15 15 145 22 10 189 26 12 227 36 23 255 2 3 22 1 16 15 10 57 111 13 20 118 5 15 63 10 16 106 1 4 15 3 8 27 2 4 27 11 16 110 3 5 36 0 0 0 1 2 18 0 0 0 0 0 0 0 20 3 0 7 0 2 71 15 0 55 20 1 99 26 1 140 35 3 169 23 2 115 13 1 129 34 1 140 18 3 197 18 3 243 29 2 155 24 4 150 17 4 93 14 4 141 24 1 76 16 2 73 11 3 62 26 1 38 16 3 51 10 0 39 6 0 10 3 0 0 0 10 1 0 0 0 0 0 0 0 25 0 0 7 0 0 19 3 2 1 2 1 114 1 0 67 1 0 171 2 1 53 2 1 2 0 0 26 0 0 216 2 1 164 0 0 242 1 0 202 0 0 151 0 0 101 6 0 
5 4 39 5 45 58 5 2 50 10 6 89 10 7 90 11 5 100 11 18 104 0 0 0 3 30 51 28 13 239 11 21 120 11 14 104 3 10 33 0 5 12 0 1 9 1 2 18 4 6 45 0 1 9 0 4 15 0 20 22 1 112 29 1 60 13 1 113 27 1 99 24 1 116 22 2 155 25 4 154 19 3 249 31 2 172 21 4 207 24 4 240 23 2 255 34 1 214 25 3 204 26 6 185 18 2 158 25 4 109 19 2 204 40 2 132 23 4 75 17 2 41 11 1 64 11 3 42 8 1 63 10 0 38 5 0 3 2 5 1 0 0 0 0 15 0 0 10 0 0 9 2 1 4 2 1 89 3 2 38 3 2 227 1 0 15 2 0 0 0 0 25 0 0 151 0 0 50 1 0 38 1 1 63 0 0 18 2 1 25 1 0 
6 4 52 5 32 49 4 12 41 6 22 57 7 13 66 6 3 51 25 18 220 16 8 139 1 0 12 15 15 140 7 6 69 12 14 113 3 15 44 2 4 27 0 0 0 2 7 33 3 5 36 1 2 18 1 28 20 0 41 11 1 62 22 2 97 33 1 128 25 1 105 34 3 144 46 2 233 39 1 150 22 2 193 42 3 186 21 4 255 49 6 255 28 1 198 29 4 255 36 5 255 31 7 255 41 3 228 32 3 171 24 6 230 29 3 220 32 2 143 28 2 87 19 1 75 12 1 126 17 2 20 7 2 91 14 0 41 7 35 0 0 5 0 0 10 0 0 20 0 0 25 0 0 9 2 1 114 4 3 28 1 0 164 0 0 15 2 1 101 1 0 164 1 0 50 1 0 63 2 1 51 4 1 89 6 0 13 6 0 25 4 1 
0 11 5 3 4 27 1 11 17 7 13 66 6 3 51 3 3 14 22 15 194 10 5 88 0 0 0 5 2 50 9 14 82 4 15 46 2 12 36 0 0 0 5 8 55 16 24 157 8 12 82 2 25 28 3 25 48 1 48 24 1 52 35 0 96 17 2 101 25 2 214 39 1 116 17 2 166 42 1 177 31 3 241 34 2 186 23 1 58 17 0 26 2 0 30 0 0 16 0 0 16 0 1 43 5 3 160 20 3 196 26 4 255 33 3 137 27 2 120 19 1 120 17 1 51 8 3 50 8 3 64 10 3 81 11 14 6 4 8 1 0 51 0 0 76 0 0 25 0 0 15 0 0 10 3 2 4 6 4 53 8 6 101 0 0 0 0 0 126 0 0 202 1 0 63 2 1 88 1 0 76 1 0 37 0 0 25 3 0 38 4 1 
7 4 52 8 43 65 9 14 79 6 12 54 6 12 54 5 2 50 13 11 118 14 7 126 0 0 0 10 5 88 7 4 63 2 1 1 2 4 27 0 0 0 1 2 18 0 1 9 4 7 46 2 5 20 2 70 34 1 25 16 2 52 40 2 102 31 2 114 31 3 255 46 2 138 26 2 237 44 1 99 20 0 13 0 0 13 0 0 2 6 0 0 0 2 55 0 0 7 0 1 19 0 1 5 0 0 2 0 0 40 5 1 130 25 4 141 23 4 138 21 2 178 26 3 64 10 2 122 19 6 87 11 3 81 13 23 5 2 2 47 9 26 5 4 5 1 0 40 0 0 5 0 0 15 0 0 0 1 1 39 1 0 88 0 0 0 0 0 63 0 0 177 1 1 39 3 0 88 0 0 39 0 0 64 10 1 63 3 0 40 13 1 
6 33 50 8 14 67 16 19 139 13 6 113 5 2 50 6 3 38 25 12 214 14 16 123 0 0 0 10 5 88 4 3 22 1 3 7 1 2 18 0 0 0 3 5 28 2 1 1 8 37 28 4 10 3 3 74 25 1 81 25 1 111 28 2 111 29 2 211 49 2 217 37 2 157 48 3 144 35 1 5 4 1 10 3 0 2 6 1 29 18 0 6 0 1 24 0 3 73 0 2 7 0 2 14 11 2 7 1 1 5 2 0 1 1 1 82 12 8 176 26 7 197 30 2 144 23 5 124 21 2 142 22 3 25 5 1 115 16 3 61 8 7 9 8 2 3 2 27 3 2 0 0 0 15 0 0 8 1 0 68 0 0 37 0 0 0 0 0 102 0 0 255 0 0 63 0 0 76 10 1 63 3 0 76 6 0 102 3 0 56 10 1 
13 39 107 10 55 82 6 35 55 7 4 52 6 12 54 1 10 16 31 25 255 13 6 113 1 0 12 14 7 126 8 4 75 0 0 0 3 5 36 0 0 0 4 6 37 7 7 11 6 24 15 5 51 27 4 54 13 1 41 7 4 171 43 4 139 26 5 123 26 3 223 46 1 97 14 0 2 2 0 1 1 1 3 3 0 6 12 0 9 6 1 27 0 2 41 6 2 48 11 5 17 0 3 4 1 1 5 2 0 1 1 0 0 0 0 3 2 2 44 10 3 255 40 3 197 30 5 118 18 2 88 13 3 89 14 10 40 8 9 58 8 16 21 4 19 3 1 21 0 0 0 0 0 30 0 0 2 0 0 38 0 0 51 0 0 0 0 0 89 0 0 217 2 0 27 7 1 38 3 0 41 4 1 53 4 1 81 10 1 19 24 3 
12 121 106 11 86 82 10 57 60 8 95 77 13 65 98 5 43 41 21 24 175 24 13 156 4 5 9 13 10 73 11 8 83 0 2 6 5 8 55 0 0 0 4 6 37 10 7 13 1 87 14 3 42 28 5 86 27 7 54 14 3 157 28 5 178 40 2 224 39 5 137 20 0 0 0 1 1 1 1 1 0 1 2 2 2 4 8 1 13 12 1 24 6 1 16 6 0 2 0 1 3 0 0 2 2 3 4 3 0 0 0 3 3 2 0 0 0 0 0 0 5 217 31 1 255 36 2 101 15 5 77 10 7 131 19 19 33 4 14 33 4 20 21 3 5 2 1 43 1 0 0 0 0 25 0 0 1 0 0 64 0 0 65 0 0 6 2 1 218 1 0 233 2 0 82 14 2 68 4 0 119 16 3 48 29 4 72 32 5 71 32 5 
11 115 100 13 67 88 18 58 145 17 29 135 17 49 136 13 7 102 31 36 249 20 10 176 3 3 2 9 10 63 16 14 114 1 6 0 4 6 45 0 0 0 12 12 43 6 32 13 3 64 33 2 19 15 5 62 20 4 80 18 2 126 24 6 119 22 6 196 33 3 101 22 2 2 0 1 3 7 2 2 0 4 4 0 9 8 1 4 4 0 0 2 6 9 77 0 10 41 0 16 20 0 4 5 0 1 1 1 6 5 0 2 1 0 7 3 1 2 1 0 3 63 10 7 232 32 5 255 38 5 111 16 7 63 10 11 101 14 8 63 10 9 22 4 18 4 1 24 2 0 0 0 0 20 0 0 1 0 0 42 1 0 78 0 0 14 3 0 193 0 0 205 3 0 54 10 1 81 1 0 79 20 2 69 34 4 74 19 3 36 40 7 
15 109 104 4 120 43 10 84 69 10 48 40 14 48 106 11 27 73 31 39 232 22 19 131 7 10 13 14 31 64 0 0 0 0 0 0 3 5 36 0 0 0 11 12 27 6 11 5 6 90 28 5 18 19 4 112 38 3 83 24 9 180 32 4 195 29 7 194 36 3 7 0 11 17 20 15 15 0 13 27 6 6 20 6 2 9 0 10 55 6 1 27 0 2 45 0 3 40 0 10 7 0 7 12 0 9 9 0 15 17 0 6 4 0 7 8 1 6 5 0 4 41 5 6 232 31 19 128 17 7 126 17 6 84 11 8 128 17 12 29 6 11 66 9 10 65 11 39 2 1 5 2 2 20 0 0 0 0 0 40 0 0 113 3 1 7 3 2 192 0 0 209 12 2 66 7 1 81 20 2 79 14 2 82 28 4 60 26 4 82 38 5 
15 78 116 18 88 143 11 76 78 7 73 64 8 49 71 6 83 44 26 46 217 17 9 128 10 31 5 13 24 64 7 4 52 1 6 0 5 7 46 3 5 9 10 11 30 3 8 1 5 68 19 2 61 19 10 153 26 3 127 19 11 174 24 6 254 45 12 62 5 2 4 6 2 2 0 4 7 6 2 2 0 6 6 0 2 34 0 2 34 0 3 34 0 1 29 0 2 21 0 7 6 0 1 7 0 7 12 0 0 0 0 17 19 0 2 2 0 11 12 0 2 2 0 9 84 11 5 195 25 7 220 30 4 157 22 17 32 4 13 59 9 11 31 5 5 1 0 21 2 2 4 2 1 15 0 0 0 0 0 65 1 0 85 3 1 9 2 1 185 5 1 168 4 0 57 18 3 79 20 2 41 24 3 112 39 5 82 31 4 61 35 4 
13 92 82 15 116 117 16 105 101 15 78 116 10 86 70 9 64 85 21 22 186 23 22 171 8 19 6 17 11 117 10 17 63 1 6 0 7 10 65 9 14 0 17 18 16 12 15 0 2 16 17 9 54 18 9 56 27 10 97 15 14 84 7 8 241 38 9 169 24 6 33 6 5 17 0 12 37 0 0 0 0 3 18 6 1 20 0 1 20 0 2 34 0 4 74 0 10 109 0 2 9 0 3 3 0 1 4 0 5 7 0 6 7 0 4 4 0 2 2 0 6 7 0 23 146 16 10 201 25 6 182 25 3 83 11 18 10 0 16 16 1 10 108 14 6 24 3 28 14 0 6 6 0 14 4 0 0 0 0 75 0 0 75 2 0 20 1 0 137 4 3 233 2 0 44 11 1 107 14 2 43 17 2 104 29 4 133 28 4 43 35 5 
9 88 64 8 84 57 15 58 121 16 39 126 15 33 109 4 61 46 27 58 228 16 9 116 11 21 18 16 29 51 10 6 75 1 6 0 9 12 36 20 21 13 23 31 34 12 67 12 7 66 39 14 50 7 8 59 8 6 123 21 14 213 34 8 182 24 18 120 10 10 35 0 3 7 13 11 48 0 14 56 0 4 43 0 3 48 0 11 73 0 1 42 0 3 64 0 4 74 0 5 7 0 11 9 0 16 8 0 14 44 0 0 2 0 12 11 0 12 14 0 6 6 0 8 28 2 31 224 25 19 192 23 11 91 10 7 97 13 20 41 4 11 111 15 9 48 6 18 8 1 15 14 3 27 5 0 2 2 0 83 6 0 46 5 0 18 11 0 178 0 0 197 12 2 44 18 2 96 28 4 73 16 3 44 38 5 48 33 5 48 25 3 
14 127 110 7 132 73 19 22 120 16 80 102 15 54 91 9 15 54 29 36 207 24 16 138 15 31 13 9 12 37 10 6 75 0 0 0 7 8 36 7 7 6 26 31 14 6 38 12 16 95 12 7 32 28 8 121 29 6 135 26 11 236 29 10 255 33 4 119 15 2 2 0 5 24 0 0 0 0 3 22 0 10 56 0 0 13 0 3 33 0 1 23 0 17 131 0 16 123 0 0 16 0 7 6 0 11 9 0 21 14 0 12 46 0 8 12 0 4 4 0 12 14 0 12 165 20 19 230 28 5 101 13 16 150 18 15 72 8 15 55 6 7 112 14 11 48 5 27 7 0 6 3 0 10 0 0 0 0 0 77 2 0 75 8 0 18 17 0 164 14 0 168 11 1 43 21 4 59 27 3 74 17 2 81 27 3 46 35 5 111 25 3 
20 111 136 17 93 78 24 67 93 19 65 106 23 108 125 12 58 106 29 19 227 18 28 98 16 21 13 17 23 63 10 6 75 2 2 0 2 3 9 8 32 0 19 47 36 14 59 7 9 63 15 8 81 13 9 141 20 5 84 11 9 143 22 10 125 15 16 186 18 1 44 73 6 46 30 0 11 18 1 13 0 7 41 0 1 6 0 0 0 0 3 54 0 2 50 0 0 16 0 2 56 0 12 54 0 10 37 0 3 0 0 6 1 0 6 36 0 3 3 0 4 5 0 7 160 20 14 133 16 15 74 7 4 100 12 21 90 10 0 22 3 29 28 2 11 19 0 5 0 0 16 12 0 19 2 0 0 0 0 105 4 0 89 13 0 14 10 0 193 2 0 210 6 1 64 17 2 55 29 3 80 20 3 60 25 2 45 38 4 33 41 5 
21 105 127 27 105 111 83 216 236 112 255 255 79 255 247 48 255 153 29 62 205 34 47 255 8 17 13 13 15 37 13 26 75 0 0 0 23 64 45 10 35 0 20 74 22 19 78 9 6 55 27 11 76 16 14 89 50 8 182 24 11 202 51 45 255 171 26 255 90 33 255 130 214 255 255 255 255 255 106 255 209 18 121 0 5 54 0 1 35 0 1 46 0 12 127 0 5 90 0 1 39 0 2 9 0 13 5 0 12 47 0 12 3 0 4 5 0 6 36 0 12 36 2 1 249 33 19 157 18 21 176 21 23 142 16 15 124 14 16 40 3 19 22 1 10 11 0 23 15 0 24 27 0 22 2 0 0 0 0 99 6 0 131 17 0 14 11 0 136 8 0 193 6 0 22 22 1 69 28 3 93 23 2 108 35 4 76 41 5 103 47 4 
30 136 111 31 126 176 33 113 170 33 255 127 42 255 155 35 223 235 35 88 255 40 79 255 34 119 255 11 27 50 9 11 50 5 17 0 10 35 0 10 35 0 14 31 34 22 91 20 8 42 39 9 63 15 7 52 40 26 169 128 59 255 255 30 255 141 25 255 79 32 255 255 38 255 110 91 255 255 123 255 248 10 68 32 1 28 0 7 50 0 5 98 0 4 74 0 3 57 0 4 83 0 0 9 0 2 9 0 8 41 0 5 10 0 10 7 0 4 5 0 7 69 7 8 255 36 9 90 11 19 128 15 7 144 18 13 77 8 6 78 10 12 73 8 14 16 0 20 15 0 24 24 0 21 12 0 5 2 0 127 12 0 77 2 0 8 8 0 177 15 0 193 11 1 57 13 0 44 16 1 48 24 2 64 33 3 66 38 4 112 41 3 
38 141 133 42 141 157 31 118 254 30 145 255 24 152 255 26 176 255 45 99 255 43 142 255 69 147 255 29 80 226 10 5 88 2 2 0 7 19 0 5 17 0 17 43 9 14 42 6 13 56 24 255 255 255 255 255 255 255 255 255 227 255 255 255 255 255 255 255 255 255 255 255 30 255 173 38 157 159 69 106 61 61 45 30 16 3 3 1 28 0 1 24 0 2 40 0 7 53 0 10 102 0 0 2 0 0 7 0 1 4 0 1 7 0 1 7 0 0 0 0 17 224 23 6 105 12 10 128 15 8 104 12 19 84 8 22 83 10 8 35 4 11 34 3 12 13 0 16 13 0 6 7 0 21 4 0 6 1 0 52 13 0 48 5 0 19 17 0 95 16 0 153 18 1 45 20 1 69 24 2 72 19 1 59 37 4 117 22 2 100 38 4 
37 149 147 52 135 98 22 200 220 27 178 208 28 213 255 36 211 255 46 88 255 45 89 255 58 92 255 59 54 166 24 32 157 2 2 0 11 38 36 2 2 0 4 4 0 255 255 255 255 255 255 255 255 255 227 255 255 143 255 197 136 255 255 148 255 240 208 255 255 255 255 255 255 255 255 117 255 222 64 56 47 132 56 45 51 20 18 9 45 0 2 50 0 7 97 0 0 7 0 0 16 0 0 7 0 8 41 0 9 4 0 6 36 0 1 4 0 9 142 10 5 237 28 3 179 23 2 126 16 17 66 6 7 56 6 11 61 8 37 58 5 39 29 2 20 23 0 30 0 0 9 10 0 25 15 0 9 8 0 52 2 0 53 0 0 12 14 0 165 15 0 223 23 0 40 12 1 34 22 1 81 21 2 109 27 2 62 26 2 90 40 3 
37 107 170 45 160 222 39 160 175 31 243 255 31 255 236 45 226 250 45 72 255 61 91 255 103 117 246 85 118 255 44 63 255 14 31 13 9 46 0 6 6 0 104 124 116 255 255 255 140 255 255 61 214 213 63 242 255 77 255 111 64 255 255 86 255 160 174 255 218 88 143 92 244 255 255 255 255 255 255 255 255 102 39 27 126 60 18 10 48 0 0 0 0 2 50 0 2 40 0 1 33 0 0 22 0 7 39 0 0 0 0 7 58 2 18 172 12 14 255 28 4 255 33 4 122 12 7 192 18 8 75 8 3 92 11 20 79 10 17 67 8 48 28 0 55 29 0 24 22 0 9 8 0 19 5 0 14 14 0 37 0 0 63 0 0 0 0 0 144 6 0 232 16 0 44 18 1 60 25 2 107 24 1 42 26 3 41 40 5 98 29 2 
44 137 255 76 163 189 49 133 121 25 176 147 37 212 255 38 255 255 48 120 255 50 134 255 113 188 255 111 210 255 95 173 255 30 82 61 9 15 18 195 214 216 255 255 255 42 98 255 90 74 165 93 143 230 96 255 255 71 255 126 255 255 255 255 255 255 255 255 255 121 85 77 99 129 194 186 223 133 255 255 255 224 172 118 152 62 11 49 14 0 1 24 0 1 33 0 3 57 0 0 16 0 0 7 0 1 27 0 1 31 2 6 161 20 16 231 28 23 232 15 3 124 15 5 222 12 5 84 10 3 52 2 10 58 3 20 24 2 35 66 5 72 7 0 75 13 0 22 10 0 9 0 0 12 2 0 7 6 0 56 4 0 25 0 0 0 0 0 176 0 0 141 1 0 52 19 0 63 23 1 144 24 2 69 13 0 65 43 4 53 25 1 
50 149 255 43 106 255 53 248 229 60 255 157 71 255 244 55 255 239 60 94 255 70 118 255 131 233 255 120 227 255 118 232 255 29 54 9 37 91 15 255 255 255 146 218 255 183 153 255 255 255 255 75 78 255 75 160 167 83 231 202 255 255 255 255 255 255 255 255 255 93 80 151 189 84 13 199 140 138 176 187 146 255 255 219 255 255 12 77 169 0 7 56 2 26 81 2 27 93 0 53 181 7 6 65 2 28 255 28 3 194 18 29 255 28 30 183 18 71 213 5 42 224 10 0 76 10 3 14 0 52 149 7 5 112 5 19 80 3 67 37 0 65 29 0 99 17 0 53 21 0 52 13 0 54 21 0 62 29 0 99 12 0 67 6 0 0 0 0 164 0 0 219 6 0 68 24 0 82 12 0 92 19 2 47 31 2 64 33 0 84 21 1 
77 83 255 71 74 200 72 242 216 97 255 85 147 255 50 155 255 50 110 190 165 105 170 208 145 255 75 109 185 64 86 181 138 57 84 103 227 255 209 255 255 255 87 38 208 190 161 255 255 255 255 69 77 255 53 90 255 15 58 93 23 143 255 255 255 255 238 255 255 131 117 255 255 43 18 255 85 69 107 53 47 255 255 255 255 255 255 56 255 38 5 198 15 31 255 25 31 255 20 13 255 33 9 255 31 35 255 15 15 255 25 8 255 31 23 252 15 65 255 15 38 230 5 54 182 5 29 141 5 28 117 2 61 195 7 33 57 0 111 101 0 158 80 0 77 35 0 88 50 0 94 45 0 56 27 0 153 14 0 54 27 0 50 17 0 24 6 0 146 0 0 255 47 0 55 6 0 78 21 0 42 6 0 94 18 0 59 30 2 114 29 1 
92 82 255 99 55 185 85 141 255 176 255 45 173 255 37 210 255 37 147 247 151 147 245 204 206 255 4 78 124 140 63 123 83 71 112 114 255 255 255 92 220 255 237 155 244 137 31 106 61 55 255 26 30 242 27 43 255 10 62 214 20 180 255 21 190 255 58 101 252 178 60 137 255 47 36 255 64 64 151 27 29 128 92 31 255 255 255 61 255 12 37 255 25 28 225 15 89 255 18 57 255 25 56 255 10 29 202 18 81 255 18 4 152 12 52 192 10 3 105 12 28 141 2 3 114 5 4 65 5 52 153 5 8 36 2 90 111 0 138 125 0 64 41 0 109 48 0 32 22 0 53 21 0 43 22 0 218 17 0 106 32 0 180 11 0 35 13 0 140 19 0 137 14 0 31 8 0 129 21 0 50 0 0 55 9 0 49 15 0 91 25 1 
139 117 255 126 115 255 117 180 255 144 255 35 194 255 12 175 255 12 128 213 151 157 255 108 93 208 24 45 77 184 44 77 31 75 118 151 255 255 255 201 208 255 255 122 234 104 18 104 28 9 66 13 7 75 37 21 207 6 3 37 0 0 0 0 0 0 76 0 0 255 1 2 145 4 12 214 11 15 193 26 29 255 255 216 255 255 255 3 172 15 2 143 12 2 136 7 29 252 18 9 173 12 2 102 5 4 166 10 3 141 7 9 164 5 3 138 5 179 255 0 238 255 2 234 255 0 26 48 0 4 16 0 0 0 0 39 8 0 44 22 0 26 51 0 17 6 0 40 20 0 119 57 0 106 34 0 234 48 0 143 45 0 241 15 0 80 33 0 141 9 0 193 13 0 44 8 0 74 15 0 73 13 0 66 6 0 42 6 0 81 12 0 
189 119 255 162 194 255 103 173 170 255 255 34 255 255 7 255 255 75 221 255 118 193 255 162 55 161 65 48 68 181 54 92 4 46 75 158 255 255 255 255 255 255 219 63 107 130 6 42 50 12 115 13 7 75 27 15 151 3 1 18 0 0 0 0 0 0 56 0 0 170 0 0 128 2 7 255 105 103 255 128 21 255 203 105 255 255 255 57 237 5 30 174 5 30 201 7 3 122 7 34 163 5 13 255 15 3 134 7 1 79 0 1 88 7 0 9 0 32 104 0 255 255 2 70 215 2 13 49 0 27 50 0 27 50 0 44 74 0 22 0 0 25 9 0 10 8 0 32 34 0 90 37 0 62 22 0 196 29 0 148 53 0 255 27 0 68 24 0 183 64 0 147 28 0 42 6 0 80 26 0 73 13 0 132 8 0 30 8 0 91 7 0 
255 251 255 255 255 37 168 255 128 255 255 12 255 255 113 187 255 198 135 255 57 82 185 13 19 56 37 41 46 224 22 80 37 35 55 143 255 255 255 255 255 137 255 247 75 255 153 207 234 117 255 148 92 132 86 54 18 95 63 0 255 252 0 255 189 0 255 207 0 255 218 0 255 232 0 255 65 0 255 155 0 255 255 95 255 255 255 31 218 2 3 129 2 84 255 0 30 220 5 109 255 7 3 119 5 30 253 12 54 182 5 55 211 2 27 130 2 4 24 2 42 185 2 19 81 0 15 78 0 3 14 0 12 44 0 38 48 0 58 7 0 35 47 0 71 217 0 58 75 0 107 65 0 38 4 0 130 25 0 50 13 0 160 7 0 60 9 0 75 16 0 162 11 0 255 7 0 154 20 0 33 10 0 79 13 0 27 2 0 151 16 0 
255 255 56 255 255 37 247 255 37 95 143 214 111 161 252 106 165 255 102 187 140 179 255 4 105 227 19 52 80 156 64 133 51 64 101 172 255 255 255 255 255 190 255 255 56 255 255 226 255 255 170 48 30 37 255 198 0 255 194 0 255 255 0 255 255 0 255 255 0 255 255 0 255 255 0 255 255 0 255 90 0 255 255 190 255 255 255 3 93 2 3 104 0 3 146 2 53 132 0 1 43 2 27 129 2 2 83 2 0 62 5 28 168 7 0 58 2 4 16 0 142 245 0 165 255 0 56 99 0 158 255 0 78 142 0 59 91 0 111 155 0 255 255 0 182 255 0 56 101 0 78 53 0 172 73 2 213 47 0 129 56 0 218 9 0 115 19 0 135 44 0 194 25 0 241 11 0 255 4 0 140 12 0 37 0 0 59 10 0 43 7 0 
255 255 99 225 211 137 119 120 244 55 51 255 57 62 252 62 65 255 165 255 44 255 255 0 201 255 30 69 100 151 89 181 40 91 177 126 255 255 255 255 255 255 255 255 132 255 130 18 199 64 0 186 127 0 255 255 0 255 255 0 255 255 0 255 255 0 255 255 0 255 255 0 255 255 0 255 247 0 232 143 0 255 255 255 226 189 95 53 142 2 33 121 5 79 197 2 51 110 2 79 171 0 83 159 0 107 250 0 35 131 0 28 62 0 26 70 0 2 14 0 107 186 0 33 85 0 58 128 0 0 2 0 0 0 0 25 15 0 34 102 0 67 134 0 230 255 0 163 244 0 214 255 0 131 230 5 243 86 1 149 69 1 241 32 0 80 21 0 133 39 0 227 26 0 255 19 0 255 6 0 255 5 0 244 3 0 80 5 0 69 7 0 
185 151 214 84 58 255 80 81 223 88 113 252 171 162 201 214 204 252 255 255 63 255 255 0 255 255 12 99 161 214 70 200 73 37 104 33 255 255 2 255 255 255 255 255 255 255 193 0 255 255 0 255 255 0 255 255 0 255 255 0 255 255 0 255 255 0 255 255 0 255 255 0 255 255 0 255 255 0 255 189 95 255 255 255 255 255 0 21 95 0 4 83 0 9 86 0 15 107 0 8 70 0 8 68 0 2 40 0 2 48 0 108 119 0 0 2 0 0 2 0 12 46 0 191 114 0 255 255 0 255 255 0 255 255 0 255 255 0 255 255 0 255 255 0 255 255 0 245 243 0 217 240 0 171 195 0 59 98 8 187 53 0 255 28 0 255 44 0 119 15 0 255 24 0 255 28 0 255 19 0 255 26 0 255 9 0 255 10 0 251 16 0 
152 126 176 138 134 252 96 76 252 99 131 227 115 164 201 146 199 176 255 255 50 255 255 0 255 255 0 154 173 75 255 233 37 255 250 0 255 255 0 255 255 255 255 255 0 255 255 95 255 255 95 255 255 0 255 255 0 255 255 0 255 255 0 255 255 0 255 255 0 255 255 0 255 255 0 255 255 95 255 255 255 255 255 190 255 255 0 255 255 0 255 255 0 255 255 0 255 255 0 255 255 0 255 255 0 255 255 0 255 228 0 255 255 0 255 255 0 255 255 0 255 233 0 255 255 0 209 193 0 255 236 0 212 166 0 116 14 0 182 84 0 63 8 0 255 129 0 255 255 0 255 255 0 255 255 0 255 255 0 255 141 0 255 67 0 255 91 0 255 63 0 255 58 0 255 17 0 255 6 0 255 5 0 255 6 0 255 7 0 255 23 0 
203 154 201 255 188 126 99 84 255 91 84 255 145 184 252 177 255 151 85 180 100 167 255 0 155 246 25 86 173 25 226 255 0 128 187 0 170 255 0 255 255 0 255 255 255 255 255 255 89 255 0 255 255 0 255 255 0 255 255 0 255 255 0 255 255 0 255 255 0 255 255 0 255 255 190 255 255 95 255 255 190 255 255 0 255 255 0 255 255 0 194 171 0 255 255 0 255 255 0 255 228 0 255 255 0 255 255 0 255 255 0 255 255 0 255 255 0 255 255 0 255 255 0 255 255 0 255 255 0 255 255 0 255 255 0 255 255 0 255 255 0 255 255 0 255 255 0 255 255 0 225 255 0 141 168 0 178 115 0 37 0 0 108 7 0 167 15 0 53 28 0 145 41 0 249 13 0 255 4 0 255 2 0 255 23 0 255 17 0 255 16 0 
104 125 50 88 203 88 80 255 113 147 255 151 255 255 63 255 255 25 255 255 25 255 255 12 184 174 151 135 255 0 255 255 0 255 255 0 255 255 0 255 255 0 13 46 0 118 194 95 255 255 255 255 255 255 255 255 255 255 255 95 255 255 190 255 255 0 255 255 95 255 255 255 255 255 255 255 255 95 186 255 0 255 178 0 255 117 0 30 128 0 0 23 0 2 88 0 1 40 0 3 66 0 1 71 0 0 23 0 1 47 0 0 16 0 0 2 0 1 50 0 7 36 0 1 7 0 6 12 0 196 121 0 16 25 0 183 87 0 239 148 0 133 94 0 124 98 0 255 180 0 255 240 0 255 255 0 255 255 0 34 13 0 153 68 0 255 26 0 255 127 0 255 135 0 255 127 0 255 141 0 255 49 0 182 8 0 137 0 0 148 15 0 
191 164 12 89 255 113 62 255 113 95 255 100 142 255 63 255 255 0 231 255 0 117 218 0 103 214 0 132 227 0 136 255 0 30 78 0 255 255 0 21 55 0 9 44 0 0 6 0 3 12 0 255 255 190 255 255 190 255 255 190 255 255 95 255 255 255 255 255 255 255 255 190 50 255 0 255 255 0 228 255 0 255 255 0 255 255 0 117 255 0 97 128 0 98 107 0 3 97 0 255 255 0 255 255 0 3 104 0 1 55 0 97 97 0 192 140 0 0 23 0 97 85 0 97 114 0 1 7 0 5 10 0 11 14 0 18 15 0 39 9 0 30 0 0 12 7 0 73 17 0 44 8 0 255 240 0 255 117 0 98 66 0 78 9 0 235 62 0 255 74 0 149 38 0 200 35 0 136 21 0 255 31 0 65 2 0 85 13 0 35 21 0 
255 255 37 122 233 100 45 189 100 65 255 50 75 255 12 57 255 12 89 201 0 151 255 0 142 255 0 123 242 0 80 198 0 23 63 0 13 65 0 13 67 0 4 40 0 24 45 0 231 255 0 255 255 0 255 255 0 255 255 0 255 255 0 255 255 0 255 255 0 255 255 0 255 255 0 255 255 0 255 255 0 255 255 0 255 255 0 255 255 0 255 255 0 193 202 0 255 255 0 255 255 0 255 255 0 255 255 0 255 255 0 255 255 0 255 255 0 255 252 0 255 233 0 255 223 0 255 255 0 195 119 0 96 61 0 175 103 0 112 62 0 17 8 0 17 6 0 58 19 0 21 10 0 34 9 0 85 5 0 5 19 0 67 12 0 3 11 0 0 2 0 21 21 0 9 10 0 65 62 0 150 31 0 59 10 0 157 23 0 178 57 0 
255 255 25 115 255 37 91 255 25 82 255 88 85 255 37 100 255 0 131 238 0 156 255 0 137 255 0 101 239 0 23 119 0 135 100 0 255 255 0 194 155 0 255 255 0 255 255 0 255 255 0 255 255 0 255 255 0 255 255 0 255 255 0 255 255 0 255 255 0 255 255 0 255 255 0 255 255 0 139 255 0 100 255 0 75 255 0 102 255 0 99 192 0 6 216 0 4 145 0 101 226 0 3 142 0 2 88 0 3 119 0 4 167 0 4 147 0 1 12 0 1 36 0 1 57 0 1 28 0 4 81 0 255 255 0 255 255 0 255 185 0 255 255 0 255 233 0 255 171 0 255 184 0 219 122 0 171 5 0 33 15 0 162 12 0 2 8 0 0 0 0 0 2 0 8 4 0 26 4 0 78 11 0 148 49 0 161 68 0 255 61 0 
255 255 50 255 255 50 60 255 12 48 255 75 60 255 0 56 255 0 106 255 0 156 255 0 118 249 0 47 61 0 5 29 0 20 46 0 255 255 0 255 255 0 255 255 0 255 255 0 255 255 0 255 255 0 255 255 0 255 255 0 255 255 0 255 255 0 255 255 0 255 255 0 255 255 0 255 255 0 255 255 0 55 255 0 9 236 0 6 216 0 4 191 0 5 193 0 2 95 0 4 112 0 2 81 0 8 250 0 4 145 0 5 176 0 3 152 0 3 123 0 4 176 0 1 47 0 1 71 0 3 78 0 255 255 0 255 255 0 255 255 0 255 255 0 255 255 0 255 255 0 255 255 0 255 183 0 115 7 0 25 12 0 152 2 0 4 5 0 1 4 0 1 4 0 1 7 0 23 12 0 35 9 0 56 21 0 32 45 0 66 33 0 
255 255 12 255 255 0 112 255 12 75 255 12 67 255 0 50 255 0 48 255 0 35 238 0 25 83 0 17 15 0 3 62 0 255 255 0 255 255 0 255 255 0 255 255 0 255 255 0 255 255 0 255 255 0 255 255 0 255 255 0 255 255 0 255 255 0 255 255 0 255 255 0 255 255 0 255 255 0 255 255 0 154 239 0 3 104 0 4 145 0 0 23 0 0 23 0 0 23 0 1 64 0 1 24 0 2 81 0 7 255 0 6 239 0 7 255 0 5 165 0 2 112 0 3 150 0 3 102 0 6 55 0 97 152 0 255 255 0 255 255 0 255 255 0 255 255 0 255 255 0 255 255 0 255 255 0 47 7 0 4 16 0 132 0 0 1 7 0 1 7 0 2 9 0 3 14 0 5 16 0 12 15 0 62 23 0 108 32 0 111 75 0 
255 255 0 255 255 0 136 246 0 86 249 0 72 235 0 47 173 0 12 111 0 4 33 0 1 13 0 34 17 0 5 29 0 97 70 0 255 255 0 255 255 0 255 255 0 255 255 0 255 255 0 255 255 0 255 255 0 255 255 0 255 255 0 255 255 0 255 255 0 255 255 0 255 255 0 255 255 0 255 255 0 255 255 0 1 32 0 0 16 0 0 16 0 0 0 0 0 16 0 0 0 0 0 16 0 0 16 0 1 71 0 3 128 0 9 250 0 3 62 0 1 50 0 1 26 0 1 47 0 4 104 0 0 23 0 255 255 0 255 255 0 255 255 0 255 255 0 255 255 0 255 255 0 255 255 0 1 7 0 8 2 0 196 0 0 5 7 0 3 11 0 6 23 0 0 0 0 5 16 0 24 19 0 22 25 0 59 47 0 6 23 0 
255 255 0 255 255 0 167 255 0 59 93 0 7 15 0 13 49 0 4 41 0 2 47 0 1 19 0 41 27 0 5 5 0 3 26 0 255 255 0 255 255 0 255 255 0 255 255 0 255 255 0 255 255 0 255 255 0 255 255 0 255 255 0 255 255 0 255 255 0 255 255 0 255 255 0 255 255 0 255 255 0 255 230 0 22 69 0 0 0 0 0 0 0 2 50 0 0 0 0 0 0 0 0 0 0 0 0 0 0 0 0 0 23 0 5 207 0 6 178 0 4 169 0 3 145 0 6 176 0 2 97 0 2 75 0 230 156 0 255 255 0 255 255 0 255 255 0 255 255 0 255 255 0 255 255 0 23 19 0 39 4 0 249 1 0 1 4 0 3 13 0 24 19 0 62 19 0 39 4 0 5 16 0 6 21 0 53 51 0 10 34 0 
255 255 0 255 255 0 178 223 0 50 118 0 13 56 0 32 66 0 21 95 0 4 64 0 3 24 0 10 5 0 13 6 0 1 6 0 255 255 0 255 255 0 255 255 0 255 255 0 255 255 0 255 255 0 255 255 0 255 255 0 255 255 0 255 252 0 255 255 0 255 255 0 255 255 0 255 255 0 255 206 0 255 157 0 125 142 0 0 16 0 1 33 0 0 16 0 1 24 0 0 16 0 0 16 0 1 33 0 0 16 0 0 0 0 0 0 0 5 238 0 4 169 0 5 202 0 3 102 0 3 121 0 7 148 0 28 87 0 255 255 0 255 255 0 255 255 0 255 255 0 255 255 0 255 255 0 3 0 0 64 0 0 102 0 0 0 0 0 1 4 0 22 11 0 213 17 0 138 19 0 98 12 0 45 25 0 18 36 0 13 44 0 
255 255 0 255 255 0 123 223 0 49 130 0 9 100 0 18 141 0 2 40 0 1 26 0 1 19 0 3 8 0 10 12 0 0 0 0 255 227 0 255 255 0 255 255 0 255 255 0 255 255 0 255 255 0 255 255 0 255 255 0 255 255 0 255 255 0 255 255 0 255 255 0 255 255 0 255 255 0 255 255 0 255 255 0 255 255 0 255 245 0 255 255 0 255 255 0 255 255 0 255 255 0 255 255 0 255 255 0 255 255 0 255 255 0 255 255 0 255 255 0 255 255 0 255 255 0 255 255 0 255 255 0 255 255 0 255 255 0 152 183 0 171 151 0 175 193 0 255 186 0 220 165 0 162 77 0 96 61 0 37 0 0 0 0 0 1 6 0 3 11 0 21 20 0 41 13 0 48 36 0 22 13 0 19 46 0 9 32 0 14 29 0 
255 255 0 255 255 0 147 255 0 35 132 0 17 140 0 17 60 0 7 15 0 1 20 0 0 0 0 0 0 0 0 0 0 1 17 0 255 255 0 255 255 0 255 244 0 255 104 0 255 165 0 255 221 0 255 198 0 255 197 0 255 228 0 255 255 0 255 255 0 255 134 0 255 76 0 255 255 0 255 160 0 255 255 0 255 255 0 255 255 0 255 255 0 255 228 0 255 255 0 255 255 0 255 255 0 255 255 0 255 255 0 255 204 0 255 255 0 255 255 0 255 255 0 255 255 0 255 255 0 255 255 0 255 243 0 210 255 0 255 255 0 61 112 0 26 50 0 77 37 0 20 18 0 32 6 0 1 4 0 39 4 0 0 0 0 0 0 0 0 2 0 69 17 0 78 8 0 88 43 0 35 57 0 18 40 0 8 29 0 12 42 0 
255 225 0 220 254 0 172 255 0 27 166 0 43 78 0 37 69 0 26 74 0 14 41 0 0 12 0 6 20 0 23 21 0 6 75 0 255 255 0 255 255 0 255 71 0 255 40 0 80 25 0 31 18 0 23 13 0 111 66 0 0 0 0 191 114 0 152 57 0 237 58 0 221 34 0 255 165 0 255 112 0 255 218 0 185 190 0 255 229 0 192 143 0 255 196 0 3 58 0 191 126 0 255 175 0 255 199 0 255 175 0 95 61 0 0 33 0 96 87 0 97 126 0 98 178 0 101 248 0 3 134 0 100 207 0 19 104 0 100 98 0 10 127 0 14 24 0 33 28 0 24 22 0 37 20 0 9 19 0 42 16 0 57 4 0 1 4 0 40 10 0 147 17 0 213 18 0 253 19 0 237 36 0 157 21 0 86 35 0 10 36 0 
255 255 0 255 255 0 255 255 0 255 255 0 235 189 0 28 37 0 21 22 0 8 34 0 0 0 0 3 26 0 18 50 0 3 37 0 255 255 0 176 193 0 246 174 0 255 132 0 103 56 0 53 48 0 39 22 0 111 66 0 0 5 0 0 0 0 37 10 0 156 18 0 255 42 0 255 117 0 255 51 0 247 255 0 19 108 0 0 16 0 2 57 0 0 16 0 2 50 0 0 13 0 0 13 0 3 63 0 0 13 0 96 73 0 1 30 0 0 4 0 0 0 0 5 211 0 4 152 0 5 244 0 3 132 0 24 108 0 9 57 0 23 73 0 61 93 0 33 51 0 101 53 0 37 25 0 5 22 0 2 9 0 1 4 0 0 0 0 21 10 0 41 12 0 80 17 0 255 189 0 255 255 0 255 255 0 255 255 0 255 255 0 
