P3
64 64
255
255 255 255 255 255 255 255 255 255 255 255 255 255 255 255 255 255 255 15 127 255 255 255 255 255 255 255 0 0 0 18 182 255 255 255 255 255 255 255 255 255 255 255 255 255 255 255 255 255 255 255 255 255 255 255 255 255 255 255 255 255 255 255 255 255 255 255 255 255 255 255 255 255 255 255 255 255 255 255 255 255 1 60 0 255 255 255 255 255 255 1 60 0 0 0 0 255 255 255 0 0 0 255 255 255 1 60 0 255 255 255 255 255 255 255 255 255 255 255 255 255 255 255 255 255 255 255 255 255 255 255 255 255 255 255 255 255 255 255 255 255 255 255 255 255 255 255 255 255 255 0 0 0 255 255 255 255 255 255 255 255 255 0 0 0 0 0 0 15 127 255 20 146 255 255 255 255 255 255 255 255 255 255 255 255 255 255 255 255 255 255 255 
18 182 255 9 101 255 7 61 96 0 44 37 0 0 0 0 0 0 3 6 96 0 0 0 0 0 0 3 6 96 15 127 255 15 127 255 15 155 255 0 17 157 0 17 157 0 0 0 2 20 149 0 0 0 1 189 212 0 8 78 0 8 78 1 199 100 3 64 78 0 25 236 0 0 0 0 8 78 0 8 78 0 17 157 0 8 78 0 0 0 0 0 0 0 0 0 0 25 236 0 8 78 0 25 236 0 8 78 0 8 78 0 17 157 0 0 0 5 45 236 5 19 0 0 103 185 5 27 78 0 8 78 0 0 0 15 135 255 0 25 236 0 0 0 0 17 157 0 8 78 0 17 157 15 132 255 15 127 255 0 0 0 0 0 0 15 127 255 0 0 0 0 0 0 44 15 4 16 142 255 42 0 0 47 19 0 39 158 255 37 142 255 
3 55 0 0 53 116 7 70 175 4 59 212 2 29 228 3 6 96 0 0 0 2 12 70 0 0 0 2 12 70 0 8 78 1 23 51 18 205 255 15 150 255 3 64 78 0 8 78 0 0 0 0 8 78 15 127 255 15 222 255 0 8 78 0 8 78 7 206 106 1 172 54 15 144 255 0 8 78 23 255 255 0 17 157 0 8 78 0 17 157 0 8 78 1 60 0 0 17 157 0 17 157 0 17 157 0 17 157 0 8 78 0 17 157 0 17 157 0 103 185 0 17 157 15 222 255 0 17 157 0 8 78 15 144 255 8 17 158 0 8 78 8 9 79 15 127 255 23 136 255 0 13 87 15 140 255 8 138 8 0 0 0 0 0 0 0 8 78 0 8 78 0 8 78 44 15 4 0 4 8 22 9 16 24 39 88 22 15 4 1 15 4 
16 186 255 0 17 157 0 25 236 0 53 116 3 23 254 0 17 157 0 7 87 0 25 236 0 17 157 0 8 78 3 72 157 1 40 209 17 148 255 45 255 255 15 127 255 0 0 0 15 127 255 0 0 0 0 0 0 45 255 255 0 86 27 30 254 255 30 254 255 0 0 0 3 141 27 3 55 0 0 0 0 0 0 0 30 254 255 0 0 0 17 248 255 0 0 0 15 127 255 1 60 0 30 254 255 0 0 0 15 127 255 15 127 255 15 127 255 15 127 255 0 0 0 15 127 255 21 232 255 30 254 255 11 124 27 8 0 0 0 0 0 39 255 255 6 34 4 39 255 255 30 255 255 30 255 255 5 27 78 0 17 157 0 17 157 0 22 166 0 25 236 5 36 157 0 8 78 0 17 157 28 43 83 1 23 83 1 15 4 3 35 17 
0 22 142 3 32 255 15 135 255 5 145 74 4 50 133 7 61 96 15 127 255 15 127 255 3 6 96 0 0 0 0 0 0 33 255 255 60 255 255 15 127 255 17 139 255 15 127 255 3 55 0 0 0 0 0 0 0 0 0 0 0 0 0 0 0 0 3 141 27 1 172 54 0 86 27 1 172 54 3 55 0 1 60 0 1 60 0 0 0 0 0 0 0 0 0 0 0 0 0 0 0 0 2 120 0 0 0 0 0 0 0 0 86 27 5 105 27 0 86 27 8 219 27 6 191 54 0 0 0 15 127 255 0 0 0 1 15 4 0 0 0 0 0 0 15 127 255 30 254 255 45 255 255 45 255 255 39 255 255 15 127 255 0 0 0 0 0 0 0 0 0 0 8 78 0 0 0 44 15 4 5 19 0 41 155 255 0 25 236 0 22 166 
15 135 255 16 180 255 30 254 255 16 180 255 0 0 0 0 0 0 30 254 255 0 0 0 0 0 0 2 12 70 15 127 255 5 67 70 3 35 121 30 254 255 33 255 255 15 127 255 2 12 70 0 8 78 0 8 78 0 8 78 3 55 0 0 0 0 0 94 106 0 0 0 3 55 0 0 103 185 0 94 106 0 8 78 0 0 0 0 0 0 1 60 0 0 0 0 0 0 0 1 60 0 0 8 78 0 8 78 0 17 157 0 86 27 5 113 106 0 86 27 0 94 106 5 27 78 0 35 125 0 0 0 0 8 78 13 19 0 0 0 0 34 1 0 30 255 255 15 127 255 15 127 255 15 127 255 5 19 0 0 0 0 15 127 255 0 0 0 0 0 0 0 0 0 0 0 0 26 19 0 21 8 79 15 135 255 21 8 79 15 135 255 
17 216 255 30 254 255 19 133 255 30 254 255 30 254 255 6 111 0 0 44 37 0 0 0 0 0 0 0 0 0 3 6 96 3 55 0 0 14 63 0 14 63 20 165 255 16 164 255 0 22 142 2 29 228 0 34 255 0 0 0 0 103 185 0 17 157 15 144 255 0 25 236 0 25 236 3 72 157 0 103 185 0 25 236 0 8 78 15 144 255 15 230 255 0 8 78 0 8 78 0 103 185 0 34 255 0 94 106 15 135 255 15 230 255 0 25 236 0 17 157 1 255 81 0 17 157 0 0 0 15 153 255 0 25 236 5 36 157 13 28 79 10 38 0 5 19 0 0 4 8 0 54 92 15 57 0 8 0 0 0 0 0 0 0 0 0 0 0 0 0 0 5 19 0 17 135 255 45 255 255 30 254 255 15 127 255 30 254 255 10 16 26 
0 0 0 15 127 255 15 127 255 32 255 255 6 14 102 0 0 0 18 182 255 0 0 0 0 0 0 0 0 0 0 0 0 2 12 70 3 64 78 0 17 157 15 150 255 15 158 255 15 153 255 3 64 78 2 12 70 0 0 0 0 8 78 3 64 78 0 8 78 0 0 0 3 141 27 0 8 78 0 94 106 255 255 255 255 255 255 255 255 255 255 255 255 255 255 255 255 255 255 255 255 255 255 255 255 0 86 27 30 255 255 8 237 185 0 17 157 0 86 27 0 94 106 0 0 0 5 36 157 0 17 157 0 0 0 20 146 255 15 144 255 0 13 87 0 25 236 0 35 125 0 17 157 0 17 157 45 127 255 5 19 0 26 27 79 0 0 0 0 0 0 0 0 0 0 0 0 15 127 255 17 135 255 1 15 4 33 144 255 1 15 4 
0 0 0 1 89 74 0 0 0 0 0 0 0 0 0 0 0 0 0 0 0 0 0 0 3 14 175 6 111 0 3 55 0 2 20 149 17 156 255 0 34 255 15 153 255 3 72 157 15 153 255 30 255 255 3 64 78 0 0 0 0 0 0 255 255 255 0 86 27 255 255 255 255 255 255 255 255 255 255 255 255 255 255 255 255 255 255 255 255 255 255 255 255 255 255 255 255 255 255 255 255 255 255 255 255 255 255 255 255 255 255 255 255 255 255 255 255 255 255 255 255 255 255 255 255 255 5 113 106 0 0 0 0 0 0 0 0 0 20 159 255 0 13 87 15 153 255 0 8 78 20 146 255 8 26 237 0 0 0 21 0 0 5 27 78 21 0 0 0 0 0 0 0 0 0 0 0 2 7 6 2 7 6 1 15 4 8 0 0 0 0 0 
0 0 0 11 5 100 0 0 0 0 0 0 0 0 0 0 0 0 0 0 0 2 7 6 2 22 70 3 55 0 3 55 0 2 20 149 0 17 157 17 148 255 15 153 255 0 25 236 18 191 255 15 144 255 30 255 255 0 0 0 0 0 0 255 255 255 255 255 255 255 255 255 255 255 255 255 255 255 255 255 255 255 255 255 255 255 255 255 255 255 255 255 255 255 255 255 255 255 255 255 255 255 255 255 255 255 255 255 255 255 255 255 255 255 255 255 255 255 255 255 255 255 255 255 255 255 255 255 255 5 19 0 15 127 255 5 27 78 20 163 255 30 255 255 15 135 255 0 25 236 15 144 255 15 135 255 17 0 0 21 0 0 0 0 0 0 0 0 2 7 6 0 0 0 0 0 0 0 0 0 8 0 0 100 0 0 100 0 0 2 30 9 
20 61 255 3 52 43 14 13 107 11 5 100 0 0 0 0 0 0 2 7 6 2 7 6 8 55 212 0 0 0 3 6 96 0 0 0 2 37 255 0 17 157 0 34 255 0 25 236 0 25 236 0 8 78 0 34 255 0 8 78 6 111 0 0 8 78 0 0 0 255 255 255 255 255 255 0 0 0 255 255 255 0 0 0 255 255 255 255 255 255 255 255 255 255 255 255 255 255 255 255 255 255 255 255 255 255 255 255 255 255 255 255 255 255 255 255 255 255 255 255 255 255 255 0 8 78 0 0 0 0 0 0 0 0 0 0 34 255 0 17 157 15 144 255 15 127 255 9 22 166 17 18 158 8 9 79 0 0 0 5 19 0 0 0 0 10 16 26 0 0 0 10 16 26 0 0 0 22 40 59 109 0 0 100 0 0 100 0 0 3 17 22 
11 5 100 8 82 255 25 101 255 13 95 255 16 165 255 8 82 255 8 71 255 6 47 205 3 21 73 6 56 255 1 31 140 8 30 236 2 12 70 0 14 63 0 0 0 16 164 255 2 12 70 0 14 63 4 92 149 0 0 0 3 64 78 0 8 78 0 17 157 0 0 0 0 17 157 0 17 157 0 8 78 0 17 157 15 135 255 0 8 78 0 17 157 0 25 236 0 25 236 0 17 157 0 8 78 0 8 78 15 144 255 0 0 0 0 25 236 10 38 0 3 2 0 0 8 78 5 36 157 4 100 228 4 92 149 0 13 87 0 0 0 8 27 46 3 2 0 17 0 0 17 0 0 0 0 0 15 127 255 10 16 26 2 11 12 0 0 0 2 7 6 2 7 6 25 56 78 18 52 65 121 32 53 201 0 0 2 11 12 0 0 0 
3 83 255 13 48 255 4 58 255 23 19 255 24 27 255 3 77 255 0 0 0 12 13 188 12 22 255 0 8 78 3 14 175 2 102 112 5 124 255 0 48 35 3 55 0 4 100 228 4 100 228 1 31 130 7 154 255 4 126 255 12 255 255 0 0 0 0 0 0 3 55 0 0 0 0 0 0 0 0 94 106 4 92 149 0 0 0 0 0 0 4 92 149 0 0 0 4 100 228 4 92 149 4 92 149 4 92 149 0 0 0 0 0 0 0 0 0 4 92 149 5 19 0 0 0 0 4 92 149 5 109 162 12 255 255 8 184 255 4 109 255 4 100 228 21 93 150 4 109 255 17 49 35 3 20 160 12 117 36 1 32 162 0 0 0 100 0 0 103 10 17 2 11 12 5 22 30 3 23 29 101 2 10 101 4 8 2 14 23 5 26 36 
2 36 133 12 13 183 23 11 201 0 0 0 14 25 254 16 21 114 4 23 96 2 50 255 0 7 82 0 7 82 15 58 144 5 132 180 2 218 197 0 52 94 10 196 255 2 12 70 6 113 255 4 92 149 4 92 149 4 92 149 4 92 149 4 107 210 0 8 78 4 100 228 0 0 0 3 55 0 0 17 157 4 92 149 4 92 149 0 8 78 0 0 0 4 100 228 0 42 106 1 69 78 1 60 0 13 203 255 9 111 149 4 92 149 0 8 78 0 8 78 0 0 0 0 17 157 9 111 149 4 100 228 0 0 0 21 101 229 8 193 255 4 97 158 17 0 0 4 97 158 8 49 35 4 18 13 0 86 27 122 0 0 2 4 11 101 5 21 3 19 23 3 17 34 7 34 43 204 8 6 201 0 0 103 11 12 204 14 23 5 22 30 
0 0 0 0 0 0 1 34 99 1 42 182 12 19 164 0 39 112 2 48 163 0 0 0 12 48 255 2 59 148 6 166 172 13 245 148 0 42 106 0 0 0 2 23 67 4 92 149 8 184 255 0 8 78 5 67 70 4 92 149 0 0 0 0 0 0 8 200 255 0 15 60 0 15 60 0 0 0 3 55 0 0 15 60 0 0 0 0 15 60 0 15 60 0 0 0 4 92 149 0 0 0 0 0 0 0 0 0 0 0 0 4 92 149 0 0 0 0 0 0 4 92 149 4 92 149 0 15 60 0 0 0 9 126 210 8 0 0 8 15 60 0 0 0 4 107 210 0 0 0 0 86 27 9 21 6 13 18 5 7 41 19 3 36 20 0 0 0 0 4 8 2 11 12 102 13 14 103 7 6 2 7 6 202 4 8 103 11 12 101 4 8 
0 0 0 26 19 208 23 11 201 11 5 100 13 54 255 2 7 6 0 14 63 0 28 126 16 21 114 3 69 199 0 42 190 11 150 250 4 49 184 12 48 255 2 7 6 0 15 60 2 52 190 0 30 120 0 0 0 3 55 0 0 0 0 0 0 0 4 92 149 0 0 0 0 0 0 4 92 149 0 0 0 0 15 60 0 0 0 0 0 0 0 0 0 1 153 20 1 168 81 0 0 0 4 92 149 0 86 27 0 0 0 0 0 0 0 8 6 0 0 0 0 15 60 0 0 0 0 0 0 0 15 60 0 15 60 0 0 0 13 19 0 0 15 60 6 115 216 0 0 0 2 6 9 6 29 4 3 161 27 5 54 7 202 4 8 101 9 16 3 16 12 5 24 19 103 12 14 2 7 6 2 12 14 100 0 0 255 8 6 0 0 0 
94 255 255 101 214 255 13 28 152 24 25 255 26 33 255 14 42 219 4 21 53 0 14 63 0 0 0 24 36 250 2 48 163 5 110 86 9 45 173 8 34 124 0 0 0 2 7 6 0 0 0 0 0 0 0 0 0 0 15 60 0 0 0 0 15 60 4 107 210 4 92 149 3 55 0 0 0 0 0 0 0 255 255 255 255 255 255 221 255 255 255 255 255 255 255 255 255 255 255 255 255 255 207 255 255 255 255 255 255 255 255 206 255 255 0 0 0 0 30 120 0 15 60 5 49 120 0 0 0 0 15 60 0 0 0 4 92 149 4 92 149 0 0 0 4 92 149 11 12 13 1 1 1 44 16 21 47 39 30 8 12 7 100 0 0 101 4 8 1 22 20 102 13 14 101 4 8 255 71 31 100 0 0 201 0 0 201 0 0 255 71 31 
47 22 255 24 24 255 45 62 255 47 22 255 102 227 255 2 36 117 4 49 184 5 33 143 26 19 208 26 23 255 13 43 216 31 22 255 0 0 0 0 39 112 2 7 6 11 32 127 0 0 0 0 14 63 0 0 0 0 0 0 0 0 0 1 23 51 1 23 51 0 0 0 0 15 60 0 0 0 0 0 0 209 255 255 207 255 255 207 255 255 206 255 255 2 213 20 0 86 27 255 255 255 255 255 255 20 255 114 206 255 255 0 0 0 0 0 0 0 30 120 0 15 60 0 0 0 0 0 0 0 0 0 0 0 0 0 0 0 40 0 0 0 0 0 41 5 8 0 0 0 3 25 19 16 0 0 41 5 8 13 9 1 212 8 6 4 9 7 2 7 6 12 3 0 255 0 0 255 0 0 255 0 0 249 73 33 255 1 0 255 0 0 
47 22 255 36 30 255 11 5 100 25 37 255 36 30 255 24 38 255 4 24 140 0 0 0 23 11 201 11 5 100 12 30 149 1 23 51 9 23 143 0 28 126 7 11 73 0 14 63 0 14 63 0 0 0 2 7 6 0 0 0 0 0 0 0 0 0 0 0 0 0 0 0 1 183 141 0 134 62 0 0 0 4 208 20 1 153 20 7 133 0 0 0 0 1 60 0 10 255 20 0 0 0 2 255 68 5 19 0 5 19 0 5 19 0 0 15 60 1 153 20 0 0 0 4 155 21 0 0 0 0 0 0 0 15 60 0 0 0 0 4 8 0 0 0 0 0 0 1 13 14 0 4 8 40 0 0 2 7 6 103 7 6 1 17 12 0 4 8 0 0 0 9 5 8 210 0 0 255 0 0 203 1 1 203 1 1 255 0 0 205 3 2 
11 5 100 23 11 201 23 11 201 23 11 201 25 34 253 35 17 255 11 5 100 0 0 0 16 70 191 16 27 154 11 5 100 11 5 100 0 0 0 0 25 48 0 0 0 14 22 147 0 0 0 0 0 0 0 0 0 0 0 0 0 0 0 1 153 20 3 255 98 0 86 27 1 153 20 3 141 27 1 239 47 1 153 20 1 153 20 3 141 27 0 0 0 1 60 0 1 60 0 1 60 0 1 239 47 0 0 0 2 255 68 0 0 0 1 153 20 1 153 20 5 19 0 2 94 33 3 161 27 0 0 0 0 0 0 0 0 0 40 0 0 0 0 0 0 0 0 0 0 0 3 2 0 0 8 6 144 8 6 2 7 6 255 0 0 6 4 0 6 4 0 6 4 0 255 0 0 255 0 0 255 0 0 201 0 0 201 0 0 100 0 0 
0 0 0 0 0 0 0 0 0 23 11 201 23 11 201 11 5 100 11 5 100 11 5 100 5 82 78 23 11 201 2 7 6 14 22 147 2 33 55 1 23 51 0 0 0 14 22 147 0 0 0 0 25 48 0 0 0 0 0 0 0 25 48 1 79 28 0 25 48 1 153 20 1 207 113 3 55 0 1 180 67 3 55 0 4 236 67 5 255 47 3 255 62 2 255 41 3 255 41 2 255 87 6 172 20 3 255 62 0 0 0 10 255 48 0 0 0 6 255 47 0 0 0 0 27 46 1 153 20 0 0 0 0 0 0 0 0 0 0 0 0 0 0 0 0 0 0 0 0 0 0 8 6 40 0 0 182 0 0 3 2 0 100 0 0 0 0 0 6 4 0 100 0 0 0 0 0 100 0 0 4 15 13 0 0 0 103 27 3 0 0 0 
0 0 0 11 5 100 2 7 6 13 85 129 0 0 0 11 5 100 23 11 201 23 11 201 1 23 51 23 11 201 0 25 48 14 22 147 4 21 53 9 19 80 0 0 0 7 11 73 2 7 6 0 0 0 0 0 0 0 0 0 1 79 28 2 7 6 0 86 27 3 161 27 1 153 20 2 255 41 7 255 20 6 111 0 5 255 41 2 255 41 8 255 20 4 255 82 2 255 41 2 255 41 2 255 41 8 255 68 1 153 20 6 172 20 0 0 0 4 255 48 0 0 0 0 0 0 0 0 0 1 153 20 2 7 6 0 0 0 0 0 0 43 8 6 0 0 0 40 0 0 40 0 0 40 0 0 17 9 6 101 8 6 100 0 0 0 0 0 100 0 0 100 0 0 0 0 0 100 0 0 103 27 3 100 0 0 2 27 3 0 0 0 
1 79 28 2 7 6 1 79 28 11 5 100 2 7 6 0 0 0 11 5 100 11 5 100 0 0 0 0 0 0 2 7 6 2 7 6 7 11 73 0 0 0 0 0 0 22 33 220 22 33 220 0 0 0 9 19 80 0 0 0 2 7 6 2 232 49 0 0 0 1 23 51 3 161 27 0 0 0 1 153 20 2 255 41 0 0 0 4 208 20 0 0 0 0 0 0 0 0 0 0 0 0 0 0 0 0 0 0 7 255 41 11 191 20 1 153 20 2 27 3 2 7 6 3 180 24 0 0 0 1 161 27 1 153 20 23 5 0 44 2 0 2 7 6 122 0 0 81 0 0 0 0 0 0 0 0 0 0 0 2 7 6 100 0 0 0 0 0 100 0 0 0 0 0 0 0 0 204 27 3 103 27 3 201 0 0 100 0 0 0 0 0 
1 79 28 0 0 0 1 79 28 11 5 100 11 5 100 2 7 6 0 0 0 0 0 0 0 0 0 11 5 100 11 5 100 0 0 0 0 0 0 0 0 0 10 2 0 0 0 0 7 11 73 0 0 0 2 176 71 2 232 49 0 0 0 1 153 20 3 161 27 2 7 6 4 21 53 3 255 62 0 0 0 0 0 0 0 0 0 8 134 51 0 0 0 1 60 0 0 0 0 0 0 0 0 0 0 0 0 0 1 153 20 1 153 20 5 169 33 4 15 13 1 153 20 1 153 20 1 161 27 17 154 20 0 0 0 3 16 12 4 155 21 0 8 6 0 0 0 40 0 0 0 0 0 0 0 0 0 0 0 2 7 6 0 0 0 0 0 0 0 0 0 201 0 0 201 0 0 0 0 0 40 0 0 0 0 0 4 35 10 2 27 3 
18 13 107 3 158 56 0 0 0 0 0 0 0 0 0 0 0 0 11 5 100 11 5 100 1 23 51 11 5 100 0 0 0 12 25 51 0 0 0 0 0 0 7 11 73 0 0 0 2 7 6 0 0 0 1 153 20 1 153 20 1 178 69 0 50 97 2 255 41 0 0 0 2 255 41 0 25 48 0 0 0 0 0 0 2 7 6 0 0 0 0 0 0 2 120 0 1 60 0 0 0 0 3 2 0 0 0 0 1 17 12 2 7 6 0 0 0 4 255 82 1 153 20 4 255 48 3 161 27 2 27 3 1 161 27 4 15 13 2 255 41 16 22 20 16 0 0 0 0 0 0 0 0 40 0 0 0 0 0 0 0 0 100 0 0 7 7 6 201 0 0 201 0 0 0 0 0 100 0 0 100 0 0 0 0 0 0 0 0 100 0 0 
1 79 28 1 79 28 0 0 0 23 11 201 0 0 0 0 0 0 23 11 201 11 5 100 0 0 0 11 5 100 0 0 0 0 0 0 0 0 0 0 0 0 7 11 73 0 0 0 7 7 6 0 0 0 0 0 0 0 0 0 3 161 27 10 2 0 12 255 42 4 255 82 1 153 20 2 7 6 0 0 0 0 0 0 0 0 0 0 0 0 0 0 0 3 55 0 0 0 0 5 19 0 0 0 0 0 0 0 0 0 0 0 8 6 0 0 0 2 7 6 4 255 68 8 160 27 16 22 20 0 0 0 11 155 21 2 27 3 0 0 0 0 0 0 17 9 7 40 0 0 0 0 0 0 0 0 0 0 0 0 0 0 0 0 0 3 2 0 201 0 0 255 0 0 100 0 0 100 0 0 100 0 0 2 27 3 106 54 7 103 27 3 
23 11 201 3 158 56 1 79 28 10 166 63 1 79 28 0 0 0 11 5 100 30 18 208 17 9 7 13 28 152 11 5 100 0 0 0 0 0 0 0 0 0 0 0 0 0 0 0 5 174 74 0 0 0 0 0 0 0 0 0 7 7 6 1 153 20 1 153 20 2 255 41 7 7 6 0 0 0 2 7 6 0 0 0 0 0 0 0 0 0 0 27 46 0 0 0 0 0 0 0 0 0 0 8 6 0 0 0 2 7 6 0 0 0 0 0 0 0 0 0 1 153 20 3 255 62 21 5 1 21 5 1 0 0 0 7 7 6 19 28 3 0 0 0 10 2 0 10 2 0 0 0 0 0 0 0 0 0 0 0 0 0 111 2 0 0 0 0 133 7 2 201 0 0 2 27 3 0 0 0 0 0 0 2 27 3 2 27 3 103 27 3 
14 14 13 14 14 13 11 5 100 18 13 107 23 11 201 10 166 63 26 52 241 23 11 201 0 0 0 11 5 100 7 7 6 0 0 0 0 0 0 0 0 0 14 14 13 0 0 0 7 7 6 1 79 28 1 153 20 17 58 6 7 7 6 2 255 41 9 255 48 7 7 6 10 2 0 0 0 0 0 0 0 10 2 0 7 7 6 16 17 0 3 55 0 0 0 0 5 19 0 0 0 0 0 0 0 0 0 0 32 35 0 10 2 0 0 0 0 7 7 6 0 0 0 0 0 0 10 187 31 1 153 20 2 255 41 2 27 3 1 153 20 1 153 20 10 2 0 0 0 0 0 0 0 0 0 0 0 0 0 10 2 0 212 2 0 21 5 1 100 0 0 201 0 0 111 2 0 0 0 0 0 0 0 13 29 4 103 27 3 8 81 11 
19 89 36 25 90 230 22 172 164 14 14 13 14 14 13 0 0 0 46 68 255 18 13 107 0 0 0 36 22 115 11 5 100 0 0 0 0 0 0 0 0 0 0 0 0 0 0 0 10 2 0 24 17 14 7 7 6 12 255 42 9 255 48 1 153 20 6 255 95 26 20 0 0 0 0 0 0 0 20 38 53 4 21 53 0 0 0 0 0 0 10 51 0 0 0 0 0 0 0 24 6 0 0 0 0 37 42 0 0 0 0 16 0 0 0 0 0 0 0 0 0 0 0 0 0 0 11 155 21 10 2 0 32 7 2 0 0 0 10 2 0 6 207 28 0 0 0 60 14 0 10 2 0 0 0 0 0 0 0 10 2 0 111 2 0 125 6 0 212 2 0 204 27 3 103 27 3 111 2 0 2 27 3 255 0 0 111 2 0 103 27 3 
3 158 56 30 18 208 11 5 100 11 5 100 16 55 52 0 0 0 26 52 241 13 85 129 0 0 0 44 114 201 0 0 0 0 0 0 0 0 0 0 0 0 7 7 6 7 7 6 4 21 53 0 0 0 10 243 122 1 79 28 17 170 20 1 153 20 1 153 20 0 0 0 0 0 0 0 0 0 0 0 0 0 0 0 0 0 0 3 55 0 0 0 0 18 184 0 7 133 0 0 0 0 0 0 0 0 0 0 0 0 0 0 0 0 0 0 0 0 0 0 0 0 0 3 255 62 9 255 48 16 17 0 7 7 6 2 27 3 0 0 0 1 153 20 7 7 6 32 7 2 21 5 1 0 0 0 0 0 0 111 2 0 10 2 0 0 0 0 100 0 0 226 6 0 2 27 3 103 27 3 2 27 3 8 81 11 2 27 3 13 29 4 
15 164 157 15 164 157 1 79 28 1 79 28 8 86 35 0 0 0 35 17 255 18 13 107 0 0 0 18 13 107 0 0 0 0 0 0 7 11 73 10 2 0 23 24 6 0 0 0 14 22 147 0 0 0 0 0 0 0 0 0 0 0 0 3 255 62 17 170 20 0 0 0 0 0 0 0 0 0 24 123 0 0 0 0 0 0 0 3 55 0 10 51 0 0 0 0 1 60 0 5 19 0 5 19 0 5 19 0 0 0 0 16 0 0 0 0 0 0 0 0 0 0 0 17 170 20 39 255 41 19 255 62 39 69 3 32 18 0 0 0 0 24 178 27 16 17 0 23 8 7 0 0 0 0 0 0 10 2 0 100 0 0 100 0 0 0 0 0 0 0 0 107 4 0 103 27 3 24 32 5 100 0 0 114 29 4 201 0 0 8 81 11 
15 164 157 14 161 57 37 96 255 8 86 35 11 5 100 10 2 0 11 5 100 11 5 100 0 0 0 0 0 0 11 5 100 0 0 0 0 0 0 26 20 0 36 56 53 0 0 0 7 11 73 10 2 0 48 246 0 11 204 20 5 174 74 25 255 20 49 255 20 24 123 0 0 0 0 24 123 0 0 0 0 27 178 0 10 51 0 0 0 0 0 0 0 63 255 0 0 0 0 0 0 0 0 0 0 5 19 0 16 0 0 0 0 0 0 0 0 0 0 0 16 17 0 2 255 41 75 237 20 2 255 41 37 42 0 45 202 27 1 153 20 16 17 0 23 24 6 16 17 0 0 0 0 7 7 6 0 0 0 100 0 0 150 12 0 0 0 0 0 0 0 255 2 0 0 0 0 0 0 0 0 0 0 12 61 14 106 54 7 111 2 0 
37 96 255 25 90 230 13 85 129 10 51 0 40 29 201 17 97 28 13 85 129 28 32 255 16 17 0 38 74 100 11 5 100 0 0 0 0 0 0 16 17 0 7 11 73 28 144 53 0 0 0 24 123 0 23 28 73 0 0 0 1 153 20 1 153 20 0 0 0 0 0 0 0 0 0 0 0 0 0 0 0 0 0 0 0 0 0 0 0 0 1 60 0 0 0 0 7 133 0 0 0 0 0 0 0 0 0 0 0 0 0 0 0 0 5 19 0 16 0 0 16 17 0 1 153 20 40 255 62 25 159 20 33 188 20 24 6 0 0 0 0 3 180 24 32 18 0 57 17 0 0 0 0 16 17 0 0 0 0 201 0 0 24 6 0 0 0 0 218 17 0 255 17 0 100 0 0 0 0 0 0 0 0 16 57 8 106 54 7 122 5 1 
14 161 57 3 158 56 26 68 0 1 79 28 11 5 100 1 34 99 23 11 201 11 5 100 26 68 0 11 5 100 10 51 0 0 0 0 7 11 73 16 17 0 0 0 0 0 0 0 1 79 28 24 123 0 16 17 0 2 232 49 40 140 0 2 255 41 5 245 170 4 92 149 4 21 53 3 55 0 0 0 0 24 123 0 0 0 0 3 55 0 0 0 0 7 133 0 0 0 0 0 0 0 0 0 0 55 255 0 0 0 0 0 0 0 0 0 0 0 0 0 0 0 0 2 255 41 16 17 0 1 153 20 0 0 0 3 180 24 16 17 0 43 27 3 40 23 0 0 0 0 0 0 0 0 0 0 0 0 0 201 0 0 0 0 0 24 6 0 201 0 0 208 4 0 18 44 3 2 27 3 14 14 13 0 0 0 23 24 6 18 44 3 
15 164 157 3 158 56 109 255 255 28 241 157 40 100 100 114 255 255 24 90 143 39 87 255 32 35 0 11 5 100 11 5 100 0 0 0 7 11 73 0 0 0 7 11 73 10 51 0 0 0 0 18 255 41 16 17 0 1 153 20 10 223 186 15 255 62 14 255 41 24 160 95 255 255 255 210 255 255 206 255 255 14 143 149 24 123 0 0 0 0 10 254 0 7 133 0 7 133 0 0 0 0 0 0 0 24 6 0 37 42 0 0 0 0 5 19 0 0 0 0 1 153 20 5 19 0 38 195 20 1 153 20 0 0 0 16 17 0 37 42 0 0 0 0 0 0 0 0 0 0 0 0 0 16 17 0 0 0 0 100 0 0 100 0 0 16 17 0 201 0 0 255 0 0 0 0 0 100 0 0 0 0 0 2 27 3 211 34 10 8 81 11 
26 20 0 46 120 129 34 57 255 27 188 99 17 225 228 36 217 209 41 49 255 39 94 255 38 79 215 17 37 205 11 5 100 0 0 0 0 0 0 0 0 0 0 0 0 24 123 0 1 153 20 0 0 0 0 0 0 106 237 255 107 255 255 48 255 255 22 233 82 58 255 20 66 255 0 58 116 95 255 255 255 0 0 0 0 0 0 3 55 0 24 123 0 0 0 0 0 0 0 13 152 0 1 60 0 0 0 0 0 0 0 37 42 0 5 19 0 0 0 0 7 46 3 38 195 20 32 35 0 37 42 0 0 0 0 3 180 24 0 0 0 1 153 20 0 0 0 37 42 0 0 0 0 0 0 0 16 17 0 0 0 0 100 0 0 0 0 0 133 35 0 255 0 0 18 44 3 16 17 0 100 0 0 2 27 3 0 0 0 18 44 3 
5 238 85 51 173 72 23 211 255 30 134 255 20 208 255 42 206 134 45 61 255 41 49 255 100 218 255 28 23 100 28 35 211 0 0 0 16 17 0 0 0 0 24 123 0 0 0 0 34 114 28 1 79 28 255 255 255 26 153 255 255 255 255 22 255 173 13 255 63 255 255 255 20 255 244 28 249 190 71 82 1 78 23 27 61 1 0 0 0 0 55 255 0 0 0 0 0 0 0 0 0 0 0 0 0 0 0 0 0 0 0 0 0 0 0 0 0 0 0 0 57 255 41 2 27 3 38 195 20 0 0 0 1 153 20 3 180 24 0 0 0 0 0 0 0 0 0 16 17 0 0 0 0 40 0 0 16 17 0 24 6 0 117 17 0 16 17 0 239 42 0 141 23 0 18 44 3 201 0 0 0 0 0 141 23 0 5 54 7 234 18 0 
28 187 70 76 37 116 22 142 163 17 146 205 18 226 234 22 255 243 24 142 209 39 99 255 65 100 255 86 79 248 39 86 211 0 0 0 16 17 0 0 0 0 0 0 0 16 17 0 255 255 255 50 255 0 255 255 255 255 255 255 255 255 255 52 255 255 16 255 0 25 255 98 17 255 52 255 255 255 31 154 192 28 44 53 11 22 26 0 0 0 0 0 0 0 0 0 0 0 0 0 0 0 0 0 0 0 0 0 0 0 0 0 0 0 0 0 0 4 190 0 0 0 0 2 255 41 1 153 20 0 0 0 16 17 0 16 17 0 0 0 0 40 0 0 16 17 0 0 0 0 0 0 0 0 0 0 0 0 0 100 0 0 0 0 0 0 0 0 100 0 0 239 42 0 100 0 0 100 0 0 2 27 3 100 0 0 32 35 0 5 54 7 
18 115 159 50 154 180 50 154 180 23 238 133 36 169 177 46 74 255 46 138 255 80 55 239 78 30 42 128 240 255 37 15 115 0 0 0 16 17 0 0 0 0 255 255 255 23 131 85 36 146 232 44 255 205 86 255 255 26 172 0 221 255 195 73 255 255 130 255 0 177 255 55 123 89 1 48 255 52 10 42 19 91 26 29 51 70 15 0 0 0 0 0 0 0 0 0 23 255 0 0 0 0 0 0 0 0 0 0 0 0 0 0 0 0 25 159 20 6 172 20 5 19 0 0 0 0 1 153 20 0 0 0 0 0 0 25 32 4 0 0 0 16 17 0 159 42 0 40 0 0 0 0 0 40 0 0 0 0 0 100 0 0 0 0 0 0 0 0 16 17 0 239 42 0 117 17 0 0 0 0 16 17 0 0 0 0 218 17 0 18 44 3 
78 42 255 23 11 201 46 140 255 54 255 255 43 255 255 49 137 255 33 58 220 44 125 255 156 255 255 156 255 255 235 255 255 0 0 0 34 174 0 255 255 255 23 131 85 56 96 209 125 54 0 81 173 255 40 101 151 66 224 0 138 255 255 255 255 255 255 255 255 30 65 124 168 112 9 33 255 82 255 255 255 120 33 22 177 43 16 1 60 0 0 0 0 0 0 0 0 0 0 0 0 0 0 0 0 0 0 0 0 0 0 28 255 62 11 191 20 6 172 20 5 19 0 1 153 20 5 19 0 1 153 20 0 0 0 1 153 20 58 78 0 81 0 0 78 42 0 0 0 0 0 0 0 16 17 0 16 17 0 117 17 0 201 0 0 0 0 0 100 0 0 218 17 0 100 0 0 0 0 0 2 27 3 0 0 0 0 0 0 106 54 7 
32 177 255 59 128 255 58 255 159 62 255 129 65 177 255 61 255 160 57 70 255 74 87 255 134 241 110 128 240 255 215 255 255 255 255 247 132 255 73 16 21 27 255 255 255 125 54 0 255 255 255 60 67 255 66 224 0 47 116 124 255 255 255 255 255 255 255 255 255 118 198 255 161 70 26 255 255 255 255 255 255 30 221 56 198 235 20 1 153 20 0 0 0 7 133 0 0 0 0 2 255 41 7 133 0 1 153 20 1 153 20 38 195 20 9 209 0 56 255 20 6 172 20 5 19 0 4 190 0 0 0 0 24 6 0 0 0 0 0 0 0 137 52 0 0 0 0 0 0 0 137 52 0 0 0 0 24 6 0 0 0 0 0 0 0 0 0 0 201 0 0 100 0 0 100 0 0 103 27 3 0 0 0 12 61 3 201 0 0 106 54 7 
77 36 255 88 87 122 48 255 0 87 211 201 215 255 100 111 255 0 125 186 255 84 135 255 184 255 110 129 217 100 127 255 0 11 5 100 116 221 0 255 255 255 72 42 255 103 49 197 255 255 255 255 255 255 63 47 255 1 40 254 30 255 255 45 255 255 255 255 255 113 83 150 209 25 37 215 35 44 37 75 61 28 86 28 255 255 255 1 153 20 3 255 62 8 255 20 2 255 41 57 255 41 1 153 20 1 153 20 2 255 41 55 255 0 38 195 20 42 61 0 1 153 20 5 19 0 9 209 0 206 255 0 10 38 0 221 255 0 46 19 0 143 71 0 255 105 0 0 0 0 16 0 0 16 17 0 100 0 0 255 0 0 192 7 0 0 0 0 201 0 0 201 0 0 0 0 0 0 0 0 137 52 0 0 0 0 100 0 0 18 44 3 
73 69 255 90 36 143 114 223 255 162 255 0 125 255 100 192 255 0 152 251 201 184 255 110 206 255 0 62 82 201 72 255 0 19 16 174 89 153 0 108 183 255 34 35 191 42 57 53 4 6 17 29 18 146 54 30 255 6 47 205 15 127 255 15 148 255 0 21 124 151 0 0 255 103 66 74 19 36 59 29 47 48 14 15 5 255 63 10 255 41 8 255 20 2 213 20 6 255 41 1 153 20 37 42 0 1 153 20 2 255 41 8 255 0 1 153 20 0 0 0 5 19 0 5 19 0 5 19 0 0 0 0 231 255 0 10 38 0 0 0 0 0 0 0 137 52 0 0 0 0 187 71 0 48 52 0 242 0 0 0 0 0 183 15 0 0 0 0 201 0 0 255 0 0 0 0 0 255 105 0 0 0 0 0 0 0 0 0 0 2 27 3 
251 162 255 74 82 209 119 255 255 255 255 255 204 255 100 154 255 0 38 58 255 90 147 100 41 111 39 43 79 241 106 170 0 70 86 255 255 255 255 130 143 255 255 255 255 218 13 40 27 15 151 30 33 255 0 0 0 27 15 151 0 0 0 0 0 0 0 0 0 0 0 0 31 0 0 181 14 22 255 4 2 207 23 12 28 255 55 7 133 0 55 255 0 0 0 0 7 133 0 1 153 20 0 0 0 4 190 0 0 0 0 1 153 20 4 190 0 0 0 0 255 255 0 0 0 0 1 153 20 5 19 0 0 0 0 0 0 0 0 0 0 0 0 0 0 0 0 0 0 0 74 84 0 137 52 0 226 6 0 255 53 0 201 0 0 137 52 0 100 0 0 0 0 0 0 0 0 100 0 0 0 0 0 0 0 0 0 0 0 100 0 0 
200 127 255 190 161 255 171 255 124 255 255 0 255 255 0 255 255 0 255 255 73 196 255 255 19 58 39 40 38 201 139 255 0 19 16 174 175 222 14 255 255 255 121 50 255 64 1 2 27 15 151 27 15 151 0 0 0 27 15 151 0 0 0 0 0 0 0 0 0 151 0 0 193 5 19 162 2 2 255 123 2 255 42 9 201 255 42 0 0 0 5 255 20 19 255 0 1 153 20 7 133 0 0 0 0 0 0 0 4 190 0 214 255 0 221 255 0 4 190 0 255 255 0 211 255 0 0 0 0 0 0 0 5 19 0 5 19 0 0 0 0 0 0 0 0 0 0 41 6 0 91 7 0 65 6 0 201 0 0 199 100 0 255 4 0 6 4 0 199 53 0 255 1 0 16 17 0 137 52 0 100 0 0 0 0 0 117 17 0 0 0 0 
255 255 255 152 187 255 151 255 181 191 255 100 191 255 100 230 255 100 40 29 201 153 255 0 0 0 0 67 87 100 11 5 100 31 22 255 239 255 0 255 255 0 255 255 19 255 47 19 0 0 0 255 210 0 0 0 0 0 0 0 255 255 0 0 0 0 0 0 0 0 0 0 255 72 0 255 82 0 255 68 0 255 130 0 229 66 0 0 0 0 0 0 0 8 193 0 1 153 20 206 255 0 7 133 0 0 0 0 1 153 20 1 153 20 0 0 0 207 255 20 0 0 0 24 6 0 24 6 0 5 19 0 0 0 0 24 6 0 0 0 0 37 42 0 66 20 0 62 48 0 137 52 0 24 6 0 255 105 0 153 70 0 255 0 0 22 22 0 16 17 0 199 53 0 201 0 0 255 1 0 0 0 0 0 0 0 0 0 0 162 1 0 
255 255 0 255 255 0 255 255 0 125 186 255 47 22 255 62 75 201 130 207 201 45 170 53 179 255 0 31 22 255 91 232 28 24 164 222 173 255 0 255 255 0 255 255 0 255 241 0 54 30 255 0 0 0 0 0 0 0 0 0 0 0 0 255 255 0 255 255 0 255 14 0 255 255 0 255 72 0 255 255 0 255 255 0 255 255 0 0 0 0 0 0 0 0 0 0 0 0 0 1 153 20 1 153 20 4 190 0 0 0 0 0 0 0 0 0 0 5 19 0 0 0 0 0 0 0 206 255 0 5 19 0 0 0 0 0 0 0 0 0 0 179 255 0 0 0 0 30 25 0 122 2 0 137 52 0 137 52 0 229 60 0 255 0 0 183 15 0 61 1 0 117 0 0 255 0 0 255 8 0 226 6 0 100 0 0 0 0 0 100 0 0 
255 255 0 234 234 100 152 255 201 74 81 255 130 207 201 113 180 201 207 255 100 255 255 0 153 255 0 137 255 201 6 98 0 13 85 129 156 223 73 255 255 255 255 255 0 255 255 0 69 70 0 255 255 0 0 0 0 255 255 0 255 255 0 0 0 0 10 14 0 255 255 0 255 255 0 255 255 0 145 79 0 79 50 0 255 255 255 1 60 0 1 153 20 0 0 0 206 255 0 0 0 0 0 0 0 38 195 20 1 60 0 5 19 0 0 0 0 5 19 0 92 255 0 0 0 0 0 0 0 0 0 0 0 0 0 61 1 0 66 255 0 61 1 0 206 255 0 0 0 0 216 255 0 248 255 20 178 52 0 154 91 0 255 7 0 108 25 0 77 1 0 100 0 0 255 0 0 255 7 0 255 1 0 255 1 0 201 0 0 0 0 0 
207 179 201 36 141 100 35 17 255 23 11 201 47 22 255 255 255 100 122 214 154 255 255 0 100 220 0 74 87 255 24 123 0 17 26 0 255 255 0 255 255 0 255 255 255 255 255 255 255 255 0 255 255 0 6 43 0 255 255 0 255 255 0 0 0 0 255 255 0 255 255 0 255 117 0 255 255 0 255 255 0 255 255 0 255 174 0 0 0 0 0 0 0 0 0 0 0 0 0 0 0 0 0 0 0 0 0 0 5 19 0 0 0 0 0 0 0 5 19 0 0 0 0 255 255 0 255 255 0 255 255 0 255 255 0 255 255 0 255 255 0 255 255 0 255 105 0 0 0 0 76 238 0 101 41 0 137 52 0 0 0 0 255 84 0 229 60 0 0 0 0 254 8 0 255 9 0 255 0 0 255 65 0 192 7 0 255 0 0 0 0 0 
180 96 255 168 90 201 47 22 255 125 186 255 47 22 255 129 198 201 122 213 0 255 255 0 255 255 0 255 253 201 69 140 0 255 255 0 255 255 0 255 255 0 255 255 0 255 255 0 132 107 0 255 255 0 255 255 0 255 255 0 0 0 0 255 255 0 255 255 0 255 255 0 255 255 0 255 255 0 255 255 0 255 255 0 255 255 0 255 255 0 255 255 0 255 255 0 0 0 0 0 0 0 206 255 0 255 255 0 255 255 0 255 255 0 255 255 0 0 0 0 255 255 0 0 0 0 0 0 0 74 84 0 37 42 0 0 0 0 5 19 0 255 255 0 255 255 0 255 255 0 255 255 0 255 255 0 20 67 0 255 74 0 255 77 0 255 74 0 255 65 0 21 36 0 255 0 0 255 17 0 255 1 0 255 10 0 255 9 0 255 9 0 
149 81 201 246 254 100 47 22 255 255 255 100 35 17 255 23 11 201 140 229 100 180 245 0 149 255 0 127 255 0 120 255 0 93 255 0 114 255 0 27 77 0 165 255 0 204 255 0 247 193 0 255 255 0 255 198 0 255 255 0 255 255 0 255 255 0 255 255 0 255 255 0 255 96 0 255 255 255 255 255 255 255 255 0 212 255 0 0 0 0 255 255 0 0 0 0 0 0 0 0 0 0 255 255 0 0 0 0 255 255 0 4 190 0 255 255 0 0 0 0 0 0 0 255 255 0 0 0 0 255 255 0 255 255 0 199 53 0 255 255 0 255 255 0 255 255 0 255 255 0 214 255 0 255 255 0 168 255 0 151 0 0 100 0 0 100 0 0 255 65 0 5 19 0 255 52 0 255 0 0 255 0 0 255 9 0 255 94 0 255 18 0 
255 238 0 60 255 100 35 17 255 84 255 100 35 17 255 255 255 0 255 255 0 255 255 0 255 255 0 134 238 0 156 255 0 255 255 0 255 255 0 36 255 0 41 149 0 31 153 0 42 179 0 255 255 0 255 255 255 255 255 0 255 255 0 255 255 0 255 255 0 255 255 0 255 255 255 107 255 0 148 186 0 255 195 0 194 255 0 0 0 0 0 0 0 0 0 0 4 190 0 0 0 0 0 0 0 0 0 0 0 0 0 0 0 0 0 0 0 0 0 0 0 0 0 5 19 0 0 0 0 0 0 0 37 42 0 255 255 0 255 255 0 37 42 0 133 40 0 24 6 0 15 57 0 255 255 0 255 255 0 0 0 0 5 19 0 42 61 0 255 131 0 255 117 0 255 117 0 255 196 0 218 17 0 100 0 0 100 0 0 100 0 0 
143 173 0 132 255 0 88 255 0 255 255 100 84 255 100 75 212 100 255 255 0 255 255 0 144 225 0 132 168 0 156 255 0 30 69 0 255 255 0 20 82 0 3 55 0 0 0 0 39 63 0 119 255 0 255 255 255 255 255 255 255 255 0 255 255 255 255 255 0 100 255 0 37 255 0 126 255 0 115 255 0 149 255 0 82 255 0 7 133 0 255 255 0 12 255 0 4 190 0 4 190 0 0 0 0 0 0 0 0 0 0 4 190 0 255 255 0 5 19 0 9 209 0 0 0 0 4 190 0 0 0 0 5 19 0 5 19 0 61 1 0 0 0 0 0 0 0 0 0 0 97 26 0 255 255 0 151 0 0 0 0 0 156 19 0 0 0 0 0 0 0 0 0 0 0 0 0 37 42 0 0 0 0 117 17 0 0 0 0 0 0 0 
216 255 0 198 255 0 84 255 100 96 255 0 72 255 0 48 255 0 112 255 0 117 211 0 120 255 0 141 255 0 81 196 0 3 55 0 0 0 0 0 0 0 17 26 0 255 255 0 163 255 0 255 255 0 255 255 0 255 255 0 255 255 0 255 255 0 255 255 0 255 255 0 255 255 0 53 255 0 255 255 0 222 69 0 255 255 0 0 0 0 255 255 0 255 255 0 255 255 0 255 255 0 0 0 0 0 0 0 255 255 0 0 0 0 255 255 0 5 19 0 0 0 0 5 19 0 255 255 0 5 19 0 5 19 0 137 52 0 0 0 0 137 52 0 0 0 0 5 19 0 30 25 0 61 1 0 61 1 0 5 19 0 0 0 0 5 19 0 0 0 0 0 0 0 37 42 0 0 0 0 5 19 0 37 42 0 0 0 0 71 34 0 
255 255 0 96 112 201 79 255 0 76 255 0 96 255 0 76 255 0 88 192 0 156 255 0 156 255 0 84 252 0 0 0 0 51 79 0 0 0 0 0 0 0 0 0 0 255 255 0 255 255 0 255 255 0 255 255 0 255 255 0 255 255 0 255 255 0 255 255 0 255 255 0 255 255 0 255 255 0 180 193 0 57 255 0 34 255 0 7 133 0 0 0 0 0 0 0 4 190 0 4 190 0 4 190 0 11 255 0 0 0 0 0 0 0 0 0 0 0 0 0 4 190 0 4 190 0 4 190 0 5 19 0 255 255 0 5 19 0 255 255 0 5 19 0 24 6 0 255 255 0 5 19 0 208 9 0 212 1 0 0 0 0 61 1 0 0 0 0 0 0 0 0 0 0 0 0 0 0 0 0 100 0 0 111 33 0 111 33 0 255 65 0 
255 255 0 255 255 100 45 235 0 49 235 100 41 255 0 50 255 0 156 255 0 156 255 0 156 255 0 51 147 0 3 55 0 71 54 0 255 255 0 0 0 0 255 255 0 255 255 0 255 255 0 255 255 0 255 255 0 255 255 0 255 255 0 255 255 0 255 255 0 255 255 0 255 255 0 255 255 0 255 255 0 229 255 0 19 26 0 7 133 0 0 0 0 0 0 0 0 0 0 0 0 0 0 0 0 11 255 0 8 255 0 4 190 0 0 0 0 9 209 0 0 0 0 0 0 0 0 0 0 4 190 0 0 0 0 255 255 0 255 255 0 255 255 0 61 1 0 61 1 0 0 0 0 0 0 0 176 6 0 217 20 0 156 19 0 0 0 0 0 0 0 0 0 0 10 33 0 0 0 0 100 0 0 100 0 0 137 52 0 238 52 0 
255 255 0 255 255 0 37 159 100 127 255 0 44 255 0 50 255 0 50 255 0 64 223 0 0 0 0 0 0 0 0 0 0 3 55 0 6 111 0 255 210 0 255 255 0 255 255 0 255 255 0 255 255 0 255 255 0 255 255 0 255 255 0 255 255 0 255 255 0 255 255 0 255 255 0 255 255 0 255 232 0 255 171 0 8 255 0 7 133 0 0 0 0 0 0 0 0 0 0 4 190 0 4 190 0 8 255 0 0 0 0 27 255 0 9 209 0 5 19 0 5 251 0 10 38 0 5 19 0 0 0 0 0 0 0 255 255 0 255 255 0 255 255 0 255 255 0 255 255 0 255 255 0 61 1 0 0 0 0 5 19 0 151 0 0 0 0 0 0 0 0 5 19 0 0 0 0 0 0 0 0 0 0 100 0 0 116 53 0 219 121 0 
255 255 0 255 231 0 255 255 0 89 187 0 182 255 0 25 153 0 6 111 0 0 0 0 0 0 0 27 13 0 0 0 0 0 0 0 106 214 0 255 255 0 255 255 0 255 255 0 255 255 0 255 255 0 255 255 0 255 255 0 215 255 0 255 255 0 230 201 0 255 255 0 255 225 0 255 255 0 255 184 0 255 255 0 91 8 0 0 0 0 0 0 0 0 0 0 0 0 0 0 0 0 0 0 0 0 0 0 0 0 0 8 255 0 4 190 0 0 0 0 4 190 0 5 19 0 9 209 0 4 190 0 0 0 0 61 1 0 255 255 0 255 255 0 255 255 0 255 255 0 255 255 0 255 255 0 255 255 0 0 0 0 151 0 0 0 0 0 10 33 0 0 0 0 0 0 0 10 33 0 0 0 0 5 19 0 137 52 0 0 0 0 
255 255 0 255 255 0 203 214 0 3 55 0 0 0 0 3 55 0 30 69 0 3 55 0 0 0 0 109 55 0 0 0 0 3 55 0 255 255 0 255 255 0 255 255 0 255 255 0 255 255 0 255 255 0 255 255 0 255 255 0 255 255 0 255 255 0 255 255 0 255 148 0 255 175 0 255 120 0 255 120 0 255 196 0 137 64 0 7 133 0 0 0 0 0 0 0 0 0 0 0 0 0 0 0 0 0 0 0 4 190 0 0 0 0 0 0 0 8 255 0 4 190 0 0 0 0 9 209 0 4 190 0 0 0 0 66 20 0 69 255 0 255 255 0 137 52 0 255 255 0 255 255 0 255 255 0 0 0 0 0 0 0 255 0 0 0 0 0 10 33 0 0 0 0 5 19 0 0 0 0 156 19 0 0 0 0 10 33 0 10 33 0 
255 255 0 255 255 0 156 255 0 33 112 0 30 69 0 0 0 0 34 53 0 6 111 0 0 0 0 30 69 0 0 0 0 0 0 0 48 255 0 255 255 0 255 255 0 255 255 0 255 255 0 255 255 0 255 255 0 255 255 0 255 255 0 255 255 0 255 255 0 255 115 0 255 255 0 255 255 0 255 212 0 255 177 0 59 24 0 0 0 0 0 0 0 0 0 0 0 0 0 7 133 0 0 0 0 0 0 0 0 0 0 0 0 0 0 0 0 0 0 0 5 19 0 12 255 0 0 0 0 5 19 0 0 0 0 61 1 0 255 255 0 255 255 0 255 255 0 255 255 0 255 255 0 61 1 0 0 0 0 0 0 0 0 0 0 0 0 0 71 34 0 156 19 0 151 0 0 171 68 0 171 68 0 20 67 0 30 101 0 25 86 0 
255 255 0 255 255 0 180 248 0 37 255 0 55 192 0 16 253 0 0 0 0 0 0 0 0 0 0 0 0 0 0 0 0 0 0 0 255 235 0 255 255 0 255 255 0 255 255 0 255 133 0 255 210 0 255 255 0 0 0 0 255 255 0 255 255 0 255 255 0 255 255 0 255 255 0 255 255 0 255 255 0 239 96 0 255 255 0 0 0 0 0 0 0 255 255 0 255 255 0 255 255 0 255 255 0 255 255 0 255 255 0 255 255 0 255 255 0 255 255 0 255 255 0 4 190 0 255 255 0 5 19 0 0 0 0 255 255 0 4 190 0 255 138 0 0 0 0 0 0 0 0 0 0 122 2 0 0 0 0 0 0 0 0 0 0 0 0 0 10 33 0 15 53 0 0 0 0 188 42 0 0 0 0 10 33 0 10 33 0 30 101 0 
255 255 0 255 255 0 156 255 0 45 169 0 3 55 0 6 98 0 3 55 0 6 98 0 0 0 0 27 13 0 0 0 0 0 0 0 102 255 0 255 255 0 255 204 0 255 61 0 210 40 0 255 255 0 0 0 0 0 0 0 0 0 0 255 255 0 0 0 0 0 0 0 255 255 0 255 255 0 255 255 0 239 96 0 79 50 0 255 255 0 255 255 0 255 255 0 0 0 0 255 255 0 255 255 0 0 0 0 0 0 0 255 255 0 255 255 0 0 0 0 0 0 0 9 209 0 255 255 0 255 255 0 255 255 0 4 190 0 20 67 0 4 190 0 25 86 0 0 0 0 137 52 0 0 0 0 5 19 0 0 0 0 0 0 0 0 0 0 0 0 0 0 0 0 5 19 0 25 86 0 161 34 0 10 38 0 15 53 0 10 33 0 
255 243 0 255 255 0 140 177 0 27 13 0 82 41 0 61 126 0 8 130 0 0 0 0 0 0 0 1 31 0 27 13 0 5 28 0 255 255 0 255 255 0 255 44 0 255 51 0 210 40 0 0 0 0 0 0 0 0 0 0 0 0 0 0 0 0 0 0 0 0 0 0 31 13 0 255 45 0 255 43 0 255 255 0 157 90 0 0 0 0 0 0 0 7 133 0 0 0 0 0 0 0 0 0 0 1 60 0 0 0 0 0 0 0 0 33 0 255 255 0 0 0 0 4 224 0 8 255 0 9 209 0 5 19 0 2 10 0 12 44 0 0 0 0 7 29 0 7 29 0 0 0 0 5 21 0 2 10 0 0 0 0 0 0 0 0 0 0 5 21 0 164 44 0 255 34 0 232 69 0 255 34 0 25 86 0 10 33 0 15 53 0 
255 255 0 255 255 0 255 255 0 255 255 0 0 0 0 27 13 0 8 142 0 0 0 0 0 0 0 0 0 0 27 13 0 0 0 0 31 255 0 255 255 0 255 115 0 122 130 0 93 40 0 6 43 0 0 0 0 0 0 0 0 0 0 0 0 0 0 0 0 226 1 0 89 33 0 255 42 0 129 58 0 255 79 0 7 147 0 0 0 0 0 0 0 0 0 0 0 0 0 0 33 0 0 0 0 0 0 0 0 0 0 0 0 0 0 33 0 7 133 0 1 67 0 5 19 0 4 190 0 4 190 0 13 255 0 17 121 0 12 222 0 74 45 0 7 29 0 10 33 0 13 48 0 12 44 0 2 10 0 255 34 0 0 0 0 0 0 0 0 0 0 12 44 0 10 33 0 10 33 0 255 121 0 30 101 0 255 255 0 10 33 0 
